<?xml version="1.0" encoding="UTF-8" standalone="no"?>
<svg
   version="1.1"
   width="29.700220cm"
   height="21.000720cm"
   viewBox="0 0 297002200 210007200"
   id="svg172"
   sodipodi:docname="murmur_logo.svg"
   inkscape:version="1.2.2 (b0a8486, 2022-12-01)"
   xmlns:inkscape="http://www.inkscape.org/namespaces/inkscape"
   xmlns:sodipodi="http://sodipodi.sourceforge.net/DTD/sodipodi-0.dtd"
   xmlns="http://www.w3.org/2000/svg"
   xmlns:svg="http://www.w3.org/2000/svg">
  <defs
     id="defs176" />
  <sodipodi:namedview
     id="namedview174"
     pagecolor="#ffffff"
     bordercolor="#000000"
     borderopacity="0.25"
     inkscape:showpageshadow="2"
     inkscape:pageopacity="0.0"
     inkscape:pagecheckerboard="0"
     inkscape:deskcolor="#d1d1d1"
     inkscape:document-units="cm"
     showgrid="false"
     inkscape:zoom="2.4574661"
     inkscape:cx="107.83465"
     inkscape:cy="104.57927"
     inkscape:window-width="1309"
     inkscape:window-height="456"
     inkscape:window-x="0"
     inkscape:window-y="25"
     inkscape:window-maximized="0"
     inkscape:current-layer="svg172" />
  <title
     id="title2">SVG Picture created as Untitled-F_Silkscreen.svg date 2023/06/29 23:35:55 </title>
  <desc
     id="desc4">Picture generated by PCBNEW </desc>
  <g
     id="path42">
    <path
       style="color:#000000;fill:#000000;fill-opacity:0;stroke-width:120000;stroke-linecap:round;stroke-linejoin:round;-inkscape-stroke:none"
       d="m 28995249,18371025 v 500000"
       id="path702" />
    <path
       style="color:#000000;fill:#000000;stroke-linecap:round;stroke-linejoin:round;-inkscape-stroke:none"
       d="m 28995249,18311025 a 60000,60000 0 0 0 -60000,60000 v 500000 a 60000,60000 0 0 0 60000,60000 60000,60000 0 0 0 60000,-60000 v -500000 a 60000,60000 0 0 0 -60000,-60000 z"
       id="path704" />
  </g>
  <g
     id="path44">
    <path
       style="color:#000000;fill:#000000;fill-opacity:0;stroke-width:120000;stroke-linecap:round;stroke-linejoin:round;-inkscape-stroke:none"
       d="m 26995249,18871025 v -500000"
       id="path696" />
    <path
       style="color:#000000;fill:#000000;stroke-linecap:round;stroke-linejoin:round;-inkscape-stroke:none"
       d="m 26995249,18311025 a 60000,60000 0 0 0 -60000,60000 v 500000 a 60000,60000 0 0 0 60000,60000 60000,60000 0 0 0 60000,-60000 v -500000 a 60000,60000 0 0 0 -60000,-60000 z"
       id="path698" />
  </g>
  <g
     id="path46">
    <path
       style="color:#000000;fill:#000000;fill-opacity:0;stroke-width:120000;stroke-linecap:round;stroke-linejoin:round;-inkscape-stroke:none"
       d="M 26995249,18371025 V 17371025"
       id="path690" />
    <path
       style="color:#000000;fill:#000000;stroke-linecap:round;stroke-linejoin:round;-inkscape-stroke:none"
       d="m 26995249,17311025 a 60000,60000 0 0 0 -60000,60000 v 1000000 a 60000,60000 0 0 0 60000,60000 60000,60000 0 0 0 60000,-60000 v -1000000 a 60000,60000 0 0 0 -60000,-60000 z"
       id="path692" />
  </g>
  <g
     id="path48">
    <path
       style="color:#000000;fill:#000000;fill-opacity:0;stroke-width:120000;stroke-linecap:round;stroke-linejoin:round;-inkscape-stroke:none"
       d="m 27489743,16248090 a 1500000,1500000 0 0 0 -2494494,1122935"
       id="path684" />
    <path
       style="color:#000000;fill:#000000;stroke-linecap:round;stroke-linejoin:round;-inkscape-stroke:none"
       d="m 26494618,15811025 c -70467,28 -140942,4831 -210938,14413 -148090,20271 -292498,61721 -428796,123077 -136297,61356 -263069,141983 -376428,239407 -113359,97423 -212128,210634 -293278,336158 -81149,125524 -143838,262060 -186143,405419 -42304,143359 -63786,292055 -63786,441526 a 60000,60000 0 0 0 60000,60000 60000,60000 0 0 0 60000,-60000 c 0,-137973 19829,-275231 58880,-407563 39050,-132331 96917,-258364 171824,-374233 74908,-115868 166079,-220370 270718,-310299 104639,-89930 221659,-164355 347472,-220991 125813,-56637 259113,-94898 395812,-113610 136698,-18712 275377,-17681 411782,3062 136405,20742 269121,60982 394078,119483 124957,58501 240858,134658 344148,226133 a 60000,60000 0 0 0 84697,-5137 60000,60000 0 0 0 -5137,-84697 c -111898,-99099 -237457,-181602 -372827,-244978 -135370,-63377 -279146,-106969 -426918,-129440 -77927,-11851 -156539,-17762 -235160,-17730 z"
       id="path686" />
  </g>
  <g
     id="path50">
    <path
       style="color:#000000;fill:#000000;fill-opacity:0;stroke-width:120000;stroke-linecap:round;stroke-linejoin:round;-inkscape-stroke:none"
       d="m 31995249,18371025 v 500000"
       id="path678" />
    <path
       style="color:#000000;fill:#000000;stroke-linecap:round;stroke-linejoin:round;-inkscape-stroke:none"
       d="m 31995249,18311025 a 60000,60000 0 0 0 -60000,60000 v 500000 a 60000,60000 0 0 0 60000,60000 60000,60000 0 0 0 60000,-60000 v -500000 a 60000,60000 0 0 0 -60000,-60000 z"
       id="path680" />
  </g>
  <g
     id="path52">
    <path
       style="color:#000000;fill:#000000;fill-opacity:0;stroke-width:120000;stroke-linecap:round;stroke-linejoin:round;-inkscape-stroke:none"
       d="M 24995249,18371025 V 17371025"
       id="path672" />
    <path
       style="color:#000000;fill:#000000;stroke-linecap:round;stroke-linejoin:round;-inkscape-stroke:none"
       d="m 24995249,17311025 a 60000,60000 0 0 0 -60000,60000 v 1000000 a 60000,60000 0 0 0 60000,60000 60000,60000 0 0 0 60000,-60000 v -1000000 a 60000,60000 0 0 0 -60000,-60000 z"
       id="path674" />
  </g>
  <g
     id="path54">
    <path
       style="color:#000000;fill:#000000;fill-opacity:0;stroke-width:120000;stroke-linecap:round;stroke-linejoin:round;-inkscape-stroke:none"
       d="m 23309619,16111342 a 1500000,1500000 0 0 0 -2314370,1259683"
       id="path666" />
    <path
       style="color:#000000;fill:#000000;stroke-linecap:round;stroke-linejoin:round;-inkscape-stroke:none"
       d="m 22495238,15811025 c -119850,1 -239369,13814 -356180,41209 -135926,31877 -266959,81858 -389586,148602 -122627,66745 -235739,149649 -336306,246492 -100567,96842 -187679,206747 -259001,326769 -71322,120022 -126210,249076 -163192,383703 -36982,134628 -55724,273611 -55724,413225 a 60000,60000 0 0 0 60000,60000 60000,60000 0 0 0 60000,-60000 c 0,-128875 17300,-257167 51438,-381438 34137,-124272 84803,-243398 150638,-354188 65836,-110790 146247,-212240 239078,-301633 92831,-89393 197242,-165920 310437,-227530 113194,-61611 234147,-107747 359617,-137172 125471,-29426 254324,-41875 383107,-37014 128783,4861 256331,26988 379227,65788 122895,38801 240025,93923 348253,163891 a 60000,60000 0 0 0 82962,-17812 60000,60000 0 0 0 -17812,-82962 c -117247,-75799 -244139,-135515 -377275,-177549 -133136,-42034 -271314,-66005 -410829,-71271 -19619,-740 -39240,-1110 -58852,-1110 z"
       id="path668" />
  </g>
  <g
     id="path56">
    <path
       style="color:#000000;fill:#000000;fill-opacity:0;stroke-width:120000;stroke-linecap:round;stroke-linejoin:round;-inkscape-stroke:none"
       d="m 14995249,18371025 v 1500000"
       id="path660" />
    <path
       style="color:#000000;fill:#000000;stroke-linecap:round;stroke-linejoin:round;-inkscape-stroke:none"
       d="m 14995249,18311025 a 60000,60000 0 0 0 -60000,60000 v 1500000 a 60000,60000 0 0 0 60000,60000 60000,60000 0 0 0 60000,-60000 v -1500000 a 60000,60000 0 0 0 -60000,-60000 z"
       id="path662" />
  </g>
  <g
     id="path58">
    <path
       style="color:#000000;fill:#000000;fill-opacity:0;stroke-width:120000;stroke-linecap:round;stroke-linejoin:round;-inkscape-stroke:none"
       d="m 18995249,17371025 v 1000000"
       id="path654" />
    <path
       style="color:#000000;fill:#000000;stroke-linecap:round;stroke-linejoin:round;-inkscape-stroke:none"
       d="m 18995249,17311025 a 60000,60000 0 0 0 -60000,60000 v 1000000 a 60000,60000 0 0 0 60000,60000 60000,60000 0 0 0 60000,-60000 v -1000000 a 60000,60000 0 0 0 -60000,-60000 z"
       id="path656" />
  </g>
  <g
     id="path60">
    <path
       style="color:#000000;fill:#000000;fill-opacity:0;stroke-width:120000;stroke-linecap:round;stroke-linejoin:round;-inkscape-stroke:none"
       d="M 21995249,18371025 V 17371025"
       id="path648" />
    <path
       style="color:#000000;fill:#000000;stroke-linecap:round;stroke-linejoin:round;-inkscape-stroke:none"
       d="m 21995249,17311025 a 60000,60000 0 0 0 -60000,60000 v 1000000 a 60000,60000 0 0 0 60000,60000 60000,60000 0 0 0 60000,-60000 v -1000000 a 60000,60000 0 0 0 -60000,-60000 z"
       id="path650" />
  </g>
  <g
     id="path62">
    <path
       style="color:#000000;fill:#000000;fill-opacity:0;stroke-width:120000;stroke-linecap:round;stroke-linejoin:round;-inkscape-stroke:none"
       d="M 15995249,19871025 V 18371025"
       id="path642" />
    <path
       style="color:#000000;fill:#000000;stroke-linecap:round;stroke-linejoin:round;-inkscape-stroke:none"
       d="m 15995249,18311025 a 60000,60000 0 0 0 -60000,60000 v 1500000 a 60000,60000 0 0 0 60000,60000 60000,60000 0 0 0 60000,-60000 v -1500000 a 60000,60000 0 0 0 -60000,-60000 z"
       id="path644" />
  </g>
  <g
     id="path64">
    <path
       style="color:#000000;fill:#000000;fill-opacity:0;stroke-width:120000;stroke-linecap:round;stroke-linejoin:round;-inkscape-stroke:none"
       d="M 27995249,19871025 V 18871025"
       id="path636" />
    <path
       style="color:#000000;fill:#000000;stroke-linecap:round;stroke-linejoin:round;-inkscape-stroke:none"
       d="m 27995249,18811025 a 60000,60000 0 0 0 -60000,60000 v 1000000 a 60000,60000 0 0 0 60000,60000 60000,60000 0 0 0 60000,-60000 v -1000000 a 60000,60000 0 0 0 -60000,-60000 z"
       id="path638" />
  </g>
  <g
     id="path66">
    <path
       style="color:#000000;fill:#000000;fill-opacity:0;stroke-width:120000;stroke-linecap:round;stroke-linejoin:round;-inkscape-stroke:none"
       d="m 23995249,18871025 a 500000,500000 0 0 0 1000000,0"
       id="path630" />
    <path
       style="color:#000000;fill:#000000;stroke-linecap:round;stroke-linejoin:round;-inkscape-stroke:none"
       d="m 23995249,18811025 a 60000,60000 0 0 0 -60000,60000 c 0,73539 14485,146361 42627,214303 28143,67941 69393,129677 121393,181677 52000,52000 113736,93250 181677,121392 67942,28143 140764,42628 214303,42628 73539,0 146361,-14485 214303,-42628 67941,-28142 129677,-69392 181677,-121392 52000,-52000 93250,-113736 121393,-181677 28142,-67942 42627,-140764 42627,-214303 a 60000,60000 0 0 0 -60000,-60000 60000,60000 0 0 0 -60000,60000 c 0,57782 -11381,114997 -33493,168381 -22112,53384 -54522,101888 -95380,142746 -40858,40858 -89362,73268 -142746,95380 -53384,22112 -110599,33493 -168381,33493 -57782,0 -114997,-11381 -168381,-33493 -53384,-22112 -101888,-54522 -142746,-95380 -40858,-40858 -73268,-89362 -95380,-142746 -22112,-53384 -33493,-110599 -33493,-168381 a 60000,60000 0 0 0 -60000,-60000 z"
       id="path632" />
  </g>
  <g
     id="path68">
    <path
       style="color:#000000;fill:#000000;fill-opacity:0;stroke-width:120000;stroke-linecap:round;stroke-linejoin:round;-inkscape-stroke:none"
       d="M 25995249,18371025 V 17371025"
       id="path624" />
    <path
       style="color:#000000;fill:#000000;stroke-linecap:round;stroke-linejoin:round;-inkscape-stroke:none"
       d="m 25995249,17311025 a 60000,60000 0 0 0 -60000,60000 v 1000000 a 60000,60000 0 0 0 60000,60000 60000,60000 0 0 0 60000,-60000 v -1000000 a 60000,60000 0 0 0 -60000,-60000 z"
       id="path626" />
  </g>
  <g
     id="path70">
    <path
       style="color:#000000;fill:#000000;fill-opacity:0;stroke-width:120000;stroke-linecap:round;stroke-linejoin:round;-inkscape-stroke:none"
       d="m 26995249,17371025 a 500000,500000 0 0 0 -1000000,0"
       id="path618" />
    <path
       style="color:#000000;fill:#000000;stroke-linecap:round;stroke-linejoin:round;-inkscape-stroke:none"
       d="m 26495249,16811025 c -73539,0 -146361,14485 -214303,42628 -67941,28142 -129677,69392 -181677,121392 -52000,52000 -93250,113736 -121393,181677 -28142,67942 -42627,140764 -42627,214303 a 60000,60000 0 0 0 60000,60000 60000,60000 0 0 0 60000,-60000 c 0,-57782 11381,-114997 33493,-168381 22112,-53384 54522,-101888 95380,-142746 40858,-40858 89362,-73268 142746,-95380 53384,-22112 110599,-33493 168381,-33493 57782,0 114997,11381 168381,33493 53384,22112 101888,54522 142746,95380 40858,40858 73268,89362 95380,142746 22112,53384 33493,110599 33493,168381 a 60000,60000 0 0 0 60000,60000 60000,60000 0 0 0 60000,-60000 c 0,-73539 -14485,-146361 -42627,-214303 -28143,-67941 -69393,-129677 -121393,-181677 -52000,-52000 -113736,-93250 -181677,-121392 -67942,-28143 -140764,-42628 -214303,-42628 z"
       id="path620" />
  </g>
  <g
     id="path72">
    <path
       style="color:#000000;fill:#000000;fill-opacity:0;stroke-width:120000;stroke-linecap:round;stroke-linejoin:round;-inkscape-stroke:none"
       d="m 28995249,18871025 a 1500000,1500000 0 0 0 3000000,0"
       id="path612" />
    <path
       style="color:#000000;fill:#000000;stroke-linecap:round;stroke-linejoin:round;-inkscape-stroke:none"
       d="m 28995249,18811025 a 60000,60000 0 0 0 -60000,60000 c 0,102184 10040,204121 29975,304341 19935,100220 49669,198240 88773,292645 39104,94406 87389,184741 144159,269704 56771,84962 121752,164142 194006,236396 72255,72255 151435,137236 236397,194006 84963,56771 175298,105056 269704,144160 94405,39104 192425,68837 292645,88772 100220,19935 202157,29975 304341,29975 102184,0 204121,-10040 304341,-29975 100220,-19935 198240,-49668 292645,-88772 94406,-39104 184741,-87389 269704,-144160 84962,-56770 164142,-121751 236397,-194006 72254,-72254 137235,-151434 194006,-236396 56770,-84963 105055,-175298 144159,-269704 39104,-94405 68838,-192425 88773,-292645 19935,-100220 29975,-202157 29975,-304341 a 60000,60000 0 0 0 -60000,-60000 60000,60000 0 0 0 -60000,60000 c 0,94323 -9268,188419 -27669,280930 -18402,92511 -45848,182991 -81944,270134 -36097,87144 -80667,170530 -133071,248957 -52403,78427 -112385,151516 -179082,218213 -66697,66696 -139786,126679 -218213,179082 -78427,52403 -161813,96974 -248957,133070 -87143,36096 -177623,63543 -270134,81944 -92511,18402 -186607,27669 -280930,27669 -94323,0 -188419,-9267 -280930,-27669 -92511,-18401 -182991,-45848 -270134,-81944 -87144,-36096 -170530,-80667 -248957,-133070 -78427,-52403 -151516,-112386 -218213,-179082 -66697,-66697 -126679,-139786 -179082,-218213 -52404,-78427 -96974,-161813 -133071,-248957 -36096,-87143 -63542,-177623 -81944,-270134 -18401,-92511 -27669,-186607 -27669,-280930 a 60000,60000 0 0 0 -60000,-60000 z"
       id="path614" />
  </g>
  <g
     id="path74">
    <path
       style="color:#000000;fill:#000000;fill-opacity:0;stroke-width:120000;stroke-linecap:round;stroke-linejoin:round;-inkscape-stroke:none"
       d="m 29995249,18371025 v 500000"
       id="path606" />
    <path
       style="color:#000000;fill:#000000;stroke-linecap:round;stroke-linejoin:round;-inkscape-stroke:none"
       d="m 29995249,18311025 a 60000,60000 0 0 0 -60000,60000 v 500000 a 60000,60000 0 0 0 60000,60000 60000,60000 0 0 0 60000,-60000 v -500000 a 60000,60000 0 0 0 -60000,-60000 z"
       id="path608" />
  </g>
  <g
     id="path76">
    <path
       style="color:#000000;fill:#000000;fill-opacity:0;stroke-width:120000;stroke-linecap:round;stroke-linejoin:round;-inkscape-stroke:none"
       d="m 30995249,18371025 v 500000"
       id="path600" />
    <path
       style="color:#000000;fill:#000000;stroke-linecap:round;stroke-linejoin:round;-inkscape-stroke:none"
       d="m 30995249,18311025 a 60000,60000 0 0 0 -60000,60000 v 500000 a 60000,60000 0 0 0 60000,60000 60000,60000 0 0 0 60000,-60000 v -500000 a 60000,60000 0 0 0 -60000,-60000 z"
       id="path602" />
  </g>
  <g
     id="path78">
    <path
       style="color:#000000;fill:#000000;fill-opacity:0;stroke-width:120000;stroke-linecap:round;stroke-linejoin:round;-inkscape-stroke:none"
       d="M 30002571,17371025 A 1507322,1507322 0 0 0 27489744,16248091"
       id="path594" />
    <path
       style="color:#000000;fill:#000000;stroke-linecap:round;stroke-linejoin:round;-inkscape-stroke:none"
       d="m 28495297,15803702 c -80938,-2 -161859,6265 -242031,18793 -148727,23241 -293331,67787 -429354,132265 -136023,64478 -262049,148215 -374193,248632 a 60000,60000 0 0 0 -4674,84724 60000,60000 0 0 0 84724,4674 c 103558,-92728 219934,-170054 345543,-229596 125609,-59541 259141,-100676 396481,-122138 137339,-21461 277055,-23025 414841,-4644 137785,18381 272204,56516 399115,113230 126911,56714 244989,131415 350597,221802 105608,90387 197644,195516 273272,312149 75628,116633 134060,243552 173494,376848 39434,133296 59459,271577 59459,410584 a 60000,60000 0 0 0 60000,60000 60000,60000 0 0 0 60000,-60000 c 0,-150531 -21686,-300279 -64389,-444626 -42704,-144347 -105980,-281791 -187878,-408093 -81898,-126303 -181566,-240149 -295930,-338030 -114363,-97881 -242233,-178776 -379665,-240192 -137433,-61416 -282998,-102713 -432207,-122618 -68777,-9175 -137997,-13762 -207205,-13764 z"
       id="path596" />
  </g>
  <g
     id="path80">
    <path
       style="color:#000000;fill:#000000;fill-opacity:0;stroke-width:120000;stroke-linecap:round;stroke-linejoin:round;-inkscape-stroke:none"
       d="m 26995249,19871025 a 500000,500000 0 0 0 1000000,0"
       id="path588" />
    <path
       style="color:#000000;fill:#000000;stroke-linecap:round;stroke-linejoin:round;-inkscape-stroke:none"
       d="m 26995249,19811025 a 60000,60000 0 0 0 -60000,60000 c 0,73539 14485,146361 42627,214303 28143,67941 69393,129677 121393,181677 52000,52000 113736,93250 181677,121392 67942,28143 140764,42628 214303,42628 73539,0 146361,-14485 214303,-42628 67941,-28142 129677,-69392 181677,-121392 52000,-52000 93250,-113736 121393,-181677 28142,-67942 42627,-140764 42627,-214303 a 60000,60000 0 0 0 -60000,-60000 60000,60000 0 0 0 -60000,60000 c 0,57782 -11381,114997 -33493,168381 -22112,53384 -54522,101888 -95380,142746 -40858,40858 -89362,73268 -142746,95380 -53384,22112 -110599,33493 -168381,33493 -57782,0 -114997,-11381 -168381,-33493 -53384,-22112 -101888,-54522 -142746,-95380 -40858,-40858 -73268,-89362 -95380,-142746 -22112,-53384 -33493,-110599 -33493,-168381 a 60000,60000 0 0 0 -60000,-60000 z"
       id="path590" />
  </g>
  <g
     id="path82">
    <path
       style="color:#000000;fill:#000000;fill-opacity:0;stroke-width:120000;stroke-linecap:round;stroke-linejoin:round;-inkscape-stroke:none"
       d="m 26995249,18871025 v 1000000"
       id="path582" />
    <path
       style="color:#000000;fill:#000000;stroke-linecap:round;stroke-linejoin:round;-inkscape-stroke:none"
       d="m 26995249,18811025 a 60000,60000 0 0 0 -60000,60000 v 1000000 a 60000,60000 0 0 0 60000,60000 60000,60000 0 0 0 60000,-60000 v -1000000 a 60000,60000 0 0 0 -60000,-60000 z"
       id="path584" />
  </g>
  <g
     id="path84">
    <path
       style="color:#000000;fill:#000000;fill-opacity:0;stroke-width:120000;stroke-linecap:round;stroke-linejoin:round;-inkscape-stroke:none"
       d="M 27995249,18371025 V 17371025"
       id="path576" />
    <path
       style="color:#000000;fill:#000000;stroke-linecap:round;stroke-linejoin:round;-inkscape-stroke:none"
       d="m 27995249,17311025 a 60000,60000 0 0 0 -60000,60000 v 1000000 a 60000,60000 0 0 0 60000,60000 60000,60000 0 0 0 60000,-60000 v -1000000 a 60000,60000 0 0 0 -60000,-60000 z"
       id="path578" />
  </g>
  <g
     id="path86">
    <path
       style="color:#000000;fill:#000000;fill-opacity:0;stroke-width:120000;stroke-linecap:round;stroke-linejoin:round;-inkscape-stroke:none"
       d="m 28995249,17371025 a 500000,500000 0 0 0 -1000000,0"
       id="path570" />
    <path
       style="color:#000000;fill:#000000;stroke-linecap:round;stroke-linejoin:round;-inkscape-stroke:none"
       d="m 28495249,16811025 c -73539,0 -146361,14485 -214303,42628 -67941,28142 -129677,69392 -181677,121392 -52000,52000 -93250,113736 -121393,181677 -28142,67942 -42627,140764 -42627,214303 a 60000,60000 0 0 0 60000,60000 60000,60000 0 0 0 60000,-60000 c 0,-57782 11381,-114997 33493,-168381 22112,-53384 54522,-101888 95380,-142746 40858,-40858 89362,-73268 142746,-95380 53384,-22112 110599,-33493 168381,-33493 57782,0 114997,11381 168381,33493 53384,22112 101888,54522 142746,95380 40858,40858 73268,89362 95380,142746 22112,53384 33493,110599 33493,168381 a 60000,60000 0 0 0 60000,60000 60000,60000 0 0 0 60000,-60000 c 0,-73539 -14485,-146361 -42627,-214303 -28143,-67941 -69393,-129677 -121393,-181677 -52000,-52000 -113736,-93250 -181677,-121392 -67942,-28143 -140764,-42628 -214303,-42628 z"
       id="path572" />
  </g>
  <g
     id="path88">
    <path
       style="color:#000000;fill:#000000;fill-opacity:0;stroke-width:120000;stroke-linecap:round;stroke-linejoin:round;-inkscape-stroke:none"
       d="m 29995249,18871025 a 500000,500000 0 0 0 1000000,0"
       id="path564" />
    <path
       style="color:#000000;fill:#000000;stroke-linecap:round;stroke-linejoin:round;-inkscape-stroke:none"
       d="m 29995249,18811025 a 60000,60000 0 0 0 -60000,60000 c 0,73539 14485,146361 42627,214303 28143,67941 69393,129677 121393,181677 52000,52000 113736,93250 181677,121392 67942,28143 140764,42628 214303,42628 73539,0 146361,-14485 214303,-42628 67941,-28142 129677,-69392 181677,-121392 52000,-52000 93250,-113736 121393,-181677 28142,-67942 42627,-140764 42627,-214303 a 60000,60000 0 0 0 -60000,-60000 60000,60000 0 0 0 -60000,60000 c 0,57782 -11381,114997 -33493,168381 -22112,53384 -54522,101888 -95380,142746 -40858,40858 -89362,73268 -142746,95380 -53384,22112 -110599,33493 -168381,33493 -57782,0 -114997,-11381 -168381,-33493 -53384,-22112 -101888,-54522 -142746,-95380 -40858,-40858 -73268,-89362 -95380,-142746 -22112,-53384 -33493,-110599 -33493,-168381 a 60000,60000 0 0 0 -60000,-60000 z"
       id="path566" />
  </g>
  <g
     id="path90">
    <path
       style="color:#000000;fill:#000000;fill-opacity:0;stroke-width:120000;stroke-linecap:round;stroke-linejoin:round;-inkscape-stroke:none"
       d="m 24995249,18371025 v 500000"
       id="path558" />
    <path
       style="color:#000000;fill:#000000;stroke-linecap:round;stroke-linejoin:round;-inkscape-stroke:none"
       d="m 24995249,18311025 a 60000,60000 0 0 0 -60000,60000 v 500000 a 60000,60000 0 0 0 60000,60000 60000,60000 0 0 0 60000,-60000 v -500000 a 60000,60000 0 0 0 -60000,-60000 z"
       id="path560" />
  </g>
  <g
     id="path92">
    <path
       style="color:#000000;fill:#000000;fill-opacity:0;stroke-width:120000;stroke-linecap:round;stroke-linejoin:round;-inkscape-stroke:none"
       d="m 25995249,18371025 v 500000"
       id="path552" />
    <path
       style="color:#000000;fill:#000000;stroke-linecap:round;stroke-linejoin:round;-inkscape-stroke:none"
       d="m 25995249,18311025 a 60000,60000 0 0 0 -60000,60000 v 500000 a 60000,60000 0 0 0 60000,60000 60000,60000 0 0 0 60000,-60000 v -500000 a 60000,60000 0 0 0 -60000,-60000 z"
       id="path554" />
  </g>
  <g
     id="path94">
    <path
       style="color:#000000;fill:#000000;fill-opacity:0;stroke-width:120000;stroke-linecap:round;stroke-linejoin:round;-inkscape-stroke:none"
       d="m 27995249,18371025 v 500000"
       id="path546" />
    <path
       style="color:#000000;fill:#000000;stroke-linecap:round;stroke-linejoin:round;-inkscape-stroke:none"
       d="m 27995249,18311025 a 60000,60000 0 0 0 -60000,60000 v 500000 a 60000,60000 0 0 0 60000,60000 60000,60000 0 0 0 60000,-60000 v -500000 a 60000,60000 0 0 0 -60000,-60000 z"
       id="path548" />
  </g>
  <g
     id="path96">
    <path
       style="color:#000000;fill:#000000;fill-opacity:0;stroke-width:120000;stroke-linecap:round;stroke-linejoin:round;-inkscape-stroke:none"
       d="m 28995249,17371025 v 1000000"
       id="path540" />
    <path
       style="color:#000000;fill:#000000;stroke-linecap:round;stroke-linejoin:round;-inkscape-stroke:none"
       d="m 28995249,17311025 a 60000,60000 0 0 0 -60000,60000 v 1000000 a 60000,60000 0 0 0 60000,60000 60000,60000 0 0 0 60000,-60000 v -1000000 a 60000,60000 0 0 0 -60000,-60000 z"
       id="path542" />
  </g>
  <g
     id="path98">
    <path
       style="color:#000000;fill:#000000;fill-opacity:0;stroke-width:120000;stroke-linecap:round;stroke-linejoin:round;-inkscape-stroke:none"
       d="m 30002572,17371025 -7323,1000000"
       id="path534" />
    <path
       style="color:#000000;fill:#000000;stroke-linecap:round;stroke-linejoin:round;-inkscape-stroke:none"
       d="m 30002323,17311026 a 60000,60000 0 0 0 -59749,59560 l -7323,1000000 a 60000,60000 0 0 0 59559,60437 60000,60000 0 0 0 60437,-59559 l 7323,-1000000 a 60000,60000 0 0 0 -59559,-60437 60000,60000 0 0 0 -688,-1 z"
       id="path536" />
  </g>
  <g
     id="path100">
    <path
       style="color:#000000;fill:#000000;fill-opacity:0;stroke-width:120000;stroke-linecap:round;stroke-linejoin:round;-inkscape-stroke:none"
       d="m 30995249,17371025 v 1000000"
       id="path528" />
    <path
       style="color:#000000;fill:#000000;stroke-linecap:round;stroke-linejoin:round;-inkscape-stroke:none"
       d="m 30995249,17311025 a 60000,60000 0 0 0 -60000,60000 v 1000000 a 60000,60000 0 0 0 60000,60000 60000,60000 0 0 0 60000,-60000 v -1000000 a 60000,60000 0 0 0 -60000,-60000 z"
       id="path530" />
  </g>
  <g
     id="path102">
    <path
       style="color:#000000;fill:#000000;fill-opacity:0;stroke-width:120000;stroke-linecap:round;stroke-linejoin:round;-inkscape-stroke:none"
       d="m 31995249,17371025 v 1000000"
       id="path522" />
    <path
       style="color:#000000;fill:#000000;stroke-linecap:round;stroke-linejoin:round;-inkscape-stroke:none"
       d="m 31995249,17311025 a 60000,60000 0 0 0 -60000,60000 v 1000000 a 60000,60000 0 0 0 60000,60000 60000,60000 0 0 0 60000,-60000 v -1000000 a 60000,60000 0 0 0 -60000,-60000 z"
       id="path524" />
  </g>
  <g
     id="path104">
    <path
       style="color:#000000;fill:#000000;fill-opacity:0;stroke-width:120000;stroke-linecap:round;stroke-linejoin:round;-inkscape-stroke:none"
       d="m 33327299,16122950 a 1500000,1500000 0 0 0 -2332050,1248075"
       id="path516" />
    <path
       style="color:#000000;fill:#000000;stroke-linecap:round;stroke-linejoin:round;-inkscape-stroke:none"
       d="m 32494899,15811026 c -115128,26 -229978,12796 -342443,38128 -137100,30881 -269399,80147 -393305,146459 -123906,66313 -238284,149065 -340028,246009 -101744,96944 -189922,207193 -262140,327753 -72218,120560 -127814,250326 -165279,385775 -37465,135449 -56455,275340 -56455,415875 a 60000,60000 0 0 0 60000,60000 60000,60000 0 0 0 60000,-60000 c 0,-129725 17529,-258855 52112,-383885 34583,-125030 85903,-244814 152565,-356100 66663,-111286 148058,-213053 241976,-302541 93917,-89487 199497,-165873 313872,-227085 114375,-61211 236497,-106687 363051,-135193 126554,-28505 256380,-39779 385953,-33516 129573,6264 257706,30008 380921,70587 123214,40580 240380,97623 348318,169581 a 60000,60000 0 0 0 83205,-16641 60000,60000 0 0 0 -16641,-83205 c -116932,-77955 -243863,-139752 -377345,-183713 -133482,-43961 -272293,-69683 -412664,-76469 -25223,-1219 -50455,-1825 -75673,-1819 z"
       id="path518" />
  </g>
  <g
     id="path106">
    <path
       style="color:#000000;fill:#000000;fill-opacity:0;stroke-width:120000;stroke-linecap:round;stroke-linejoin:round;-inkscape-stroke:none"
       d="m 18995249,18371025 v 500000"
       id="path510" />
    <path
       style="color:#000000;fill:#000000;stroke-linecap:round;stroke-linejoin:round;-inkscape-stroke:none"
       d="m 18995249,18311025 a 60000,60000 0 0 0 -60000,60000 v 500000 a 60000,60000 0 0 0 60000,60000 60000,60000 0 0 0 60000,-60000 v -500000 a 60000,60000 0 0 0 -60000,-60000 z"
       id="path512" />
  </g>
  <g
     id="path108">
    <path
       style="color:#000000;fill:#000000;fill-opacity:0;stroke-width:120000;stroke-linecap:round;stroke-linejoin:round;-inkscape-stroke:none"
       d="m 21995249,18371025 v 500000"
       id="path504" />
    <path
       style="color:#000000;fill:#000000;stroke-linecap:round;stroke-linejoin:round;-inkscape-stroke:none"
       d="m 21995249,18311025 a 60000,60000 0 0 0 -60000,60000 v 500000 a 60000,60000 0 0 0 60000,60000 60000,60000 0 0 0 60000,-60000 v -500000 a 60000,60000 0 0 0 -60000,-60000 z"
       id="path506" />
  </g>
  <g
     id="path110">
    <path
       style="color:#000000;fill:#000000;fill-opacity:0;stroke-width:120000;stroke-linecap:round;stroke-linejoin:round;-inkscape-stroke:none"
       d="m 20995249,18371025 v 500000"
       id="path498" />
    <path
       style="color:#000000;fill:#000000;stroke-linecap:round;stroke-linejoin:round;-inkscape-stroke:none"
       d="m 20995249,18311025 a 60000,60000 0 0 0 -60000,60000 v 500000 a 60000,60000 0 0 0 60000,60000 60000,60000 0 0 0 60000,-60000 v -500000 a 60000,60000 0 0 0 -60000,-60000 z"
       id="path500" />
  </g>
  <g
     id="path112">
    <path
       style="color:#000000;fill:#000000;fill-opacity:0;stroke-width:120000;stroke-linecap:round;stroke-linejoin:round;-inkscape-stroke:none"
       d="m 19995249,18371025 v 500000"
       id="path492" />
    <path
       style="color:#000000;fill:#000000;stroke-linecap:round;stroke-linejoin:round;-inkscape-stroke:none"
       d="m 19995249,18311025 a 60000,60000 0 0 0 -60000,60000 v 500000 a 60000,60000 0 0 0 60000,60000 60000,60000 0 0 0 60000,-60000 v -500000 a 60000,60000 0 0 0 -60000,-60000 z"
       id="path494" />
  </g>
  <g
     id="path114">
    <path
       style="color:#000000;fill:#000000;fill-opacity:0;stroke-width:120000;stroke-linecap:round;stroke-linejoin:round;-inkscape-stroke:none"
       d="m 18995249,18871025 a 1500000,1500000 0 0 0 3000000,0"
       id="path486" />
    <path
       style="color:#000000;fill:#000000;stroke-linecap:round;stroke-linejoin:round;-inkscape-stroke:none"
       d="m 18995249,18811025 a 60000,60000 0 0 0 -60000,60000 c 0,102184 10040,204121 29975,304341 19935,100220 49669,198240 88773,292645 39104,94406 87389,184741 144159,269704 56771,84962 121752,164142 194006,236396 72255,72255 151435,137236 236397,194006 84963,56771 175298,105056 269704,144160 94405,39104 192425,68837 292645,88772 100220,19935 202157,29975 304341,29975 102184,0 204121,-10040 304341,-29975 100220,-19935 198240,-49668 292645,-88772 94406,-39104 184741,-87389 269704,-144160 84962,-56770 164142,-121751 236397,-194006 72254,-72254 137235,-151434 194006,-236396 56770,-84963 105055,-175298 144159,-269704 39104,-94405 68838,-192425 88773,-292645 19935,-100220 29975,-202157 29975,-304341 a 60000,60000 0 0 0 -60000,-60000 60000,60000 0 0 0 -60000,60000 c 0,94323 -9268,188419 -27669,280930 -18402,92511 -45848,182991 -81944,270134 -36097,87144 -80667,170530 -133071,248957 -52403,78427 -112385,151516 -179082,218213 -66697,66696 -139786,126679 -218213,179082 -78427,52403 -161813,96974 -248957,133070 -87143,36096 -177623,63543 -270134,81944 -92511,18402 -186607,27669 -280930,27669 -94323,0 -188419,-9267 -280930,-27669 -92511,-18401 -182991,-45848 -270134,-81944 -87144,-36096 -170530,-80667 -248957,-133070 -78427,-52403 -151516,-112386 -218213,-179082 -66697,-66697 -126679,-139786 -179082,-218213 -52404,-78427 -96974,-161813 -133071,-248957 -36096,-87143 -63542,-177623 -81944,-270134 -18401,-92511 -27669,-186607 -27669,-280930 a 60000,60000 0 0 0 -60000,-60000 z"
       id="path488" />
  </g>
  <g
     id="path116">
    <path
       style="color:#000000;fill:#000000;fill-opacity:0;stroke-width:120000;stroke-linecap:round;stroke-linejoin:round;-inkscape-stroke:none"
       d="m 19995249,18871025 a 500000,500000 0 0 0 1000000,0"
       id="path480" />
    <path
       style="color:#000000;fill:#000000;stroke-linecap:round;stroke-linejoin:round;-inkscape-stroke:none"
       d="m 19995249,18811025 a 60000,60000 0 0 0 -60000,60000 c 0,73539 14485,146361 42627,214303 28143,67941 69393,129677 121393,181677 52000,52000 113736,93250 181677,121392 67942,28143 140764,42628 214303,42628 73539,0 146361,-14485 214303,-42628 67941,-28142 129677,-69392 181677,-121392 52000,-52000 93250,-113736 121393,-181677 28142,-67942 42627,-140764 42627,-214303 a 60000,60000 0 0 0 -60000,-60000 60000,60000 0 0 0 -60000,60000 c 0,57782 -11381,114997 -33493,168381 -22112,53384 -54522,101888 -95380,142746 -40858,40858 -89362,73268 -142746,95380 -53384,22112 -110599,33493 -168381,33493 -57782,0 -114997,-11381 -168381,-33493 -53384,-22112 -101888,-54522 -142746,-95380 -40858,-40858 -73268,-89362 -95380,-142746 -22112,-53384 -33493,-110599 -33493,-168381 a 60000,60000 0 0 0 -60000,-60000 z"
       id="path482" />
  </g>
  <g
     id="path118">
    <path
       style="color:#000000;fill:#000000;fill-opacity:0;stroke-width:120000;stroke-linecap:round;stroke-linejoin:round;-inkscape-stroke:none"
       d="M 14995249,18371025 V 17371025"
       id="path474" />
    <path
       style="color:#000000;fill:#000000;stroke-linecap:round;stroke-linejoin:round;-inkscape-stroke:none"
       d="m 14995249,17311025 a 60000,60000 0 0 0 -60000,60000 v 1000000 a 60000,60000 0 0 0 60000,60000 60000,60000 0 0 0 60000,-60000 v -1000000 a 60000,60000 0 0 0 -60000,-60000 z"
       id="path476" />
  </g>
  <g
     id="path120">
    <path
       style="color:#000000;fill:#000000;fill-opacity:0;stroke-width:120000;stroke-linecap:round;stroke-linejoin:round;-inkscape-stroke:none"
       d="M 15995249,18371025 V 17371025"
       id="path468" />
    <path
       style="color:#000000;fill:#000000;stroke-linecap:round;stroke-linejoin:round;-inkscape-stroke:none"
       d="m 15995249,17311025 a 60000,60000 0 0 0 -60000,60000 v 1000000 a 60000,60000 0 0 0 60000,60000 60000,60000 0 0 0 60000,-60000 v -1000000 a 60000,60000 0 0 0 -60000,-60000 z"
       id="path470" />
  </g>
  <g
     id="path122">
    <path
       style="color:#000000;fill:#000000;fill-opacity:0;stroke-width:120000;stroke-linecap:round;stroke-linejoin:round;-inkscape-stroke:none"
       d="m 16995249,17371025 a 500000,500000 0 0 0 -1000000,0"
       id="path462" />
    <path
       style="color:#000000;fill:#000000;stroke-linecap:round;stroke-linejoin:round;-inkscape-stroke:none"
       d="m 16495249,16811025 c -73539,0 -146361,14485 -214303,42628 -67941,28142 -129677,69392 -181677,121392 -52000,52000 -93250,113736 -121393,181677 -28142,67942 -42627,140764 -42627,214303 a 60000,60000 0 0 0 60000,60000 60000,60000 0 0 0 60000,-60000 c 0,-57782 11381,-114997 33493,-168381 22112,-53384 54522,-101888 95380,-142746 40858,-40858 89362,-73268 142746,-95380 53384,-22112 110599,-33493 168381,-33493 57782,0 114997,11381 168381,33493 53384,22112 101888,54522 142746,95380 40858,40858 73268,89362 95380,142746 22112,53384 33493,110599 33493,168381 a 60000,60000 0 0 0 60000,60000 60000,60000 0 0 0 60000,-60000 c 0,-73539 -14485,-146361 -42627,-214303 -28143,-67941 -69393,-129677 -121393,-181677 -52000,-52000 -113736,-93250 -181677,-121392 -67942,-28143 -140764,-42628 -214303,-42628 z"
       id="path464" />
  </g>
  <g
     id="path124">
    <path
       style="color:#000000;fill:#000000;fill-opacity:0;stroke-width:120000;stroke-linecap:round;stroke-linejoin:round;-inkscape-stroke:none"
       d="m 14995249,19871025 a 500000,500000 0 0 0 1000000,0"
       id="path456" />
    <path
       style="color:#000000;fill:#000000;stroke-linecap:round;stroke-linejoin:round;-inkscape-stroke:none"
       d="m 14995249,19811025 a 60000,60000 0 0 0 -60000,60000 c 0,73539 14485,146361 42627,214303 28143,67941 69393,129677 121393,181677 52000,52000 113736,93250 181677,121392 67942,28143 140764,42628 214303,42628 73539,0 146361,-14485 214303,-42628 67941,-28142 129677,-69392 181677,-121392 52000,-52000 93250,-113736 121393,-181677 28142,-67942 42627,-140764 42627,-214303 a 60000,60000 0 0 0 -60000,-60000 60000,60000 0 0 0 -60000,60000 c 0,57782 -11381,114997 -33493,168381 -22112,53384 -54522,101888 -95380,142746 -40858,40858 -89362,73268 -142746,95380 -53384,22112 -110599,33493 -168381,33493 -57782,0 -114997,-11381 -168381,-33493 -53384,-22112 -101888,-54522 -142746,-95380 -40858,-40858 -73268,-89362 -95380,-142746 -22112,-53384 -33493,-110599 -33493,-168381 a 60000,60000 0 0 0 -60000,-60000 z"
       id="path458" />
  </g>
  <g
     id="path126">
    <path
       style="color:#000000;fill:#000000;fill-opacity:0;stroke-width:120000;stroke-linecap:round;stroke-linejoin:round;-inkscape-stroke:none"
       d="m 19995249,18371025 7323,-1000000"
       id="path450" />
    <path
       style="color:#000000;fill:#000000;stroke-linecap:round;stroke-linejoin:round;-inkscape-stroke:none"
       d="m 20002323,17311026 a 60000,60000 0 0 0 -59749,59560 l -7323,1000000 a 60000,60000 0 0 0 59559,60437 60000,60000 0 0 0 60437,-59559 l 7323,-1000000 a 60000,60000 0 0 0 -59559,-60437 60000,60000 0 0 0 -688,-1 z"
       id="path452" />
  </g>
  <g
     id="path128">
    <path
       style="color:#000000;fill:#000000;fill-opacity:0;stroke-width:120000;stroke-linecap:round;stroke-linejoin:round;-inkscape-stroke:none"
       d="M 17995249,18371025 V 17371025"
       id="path444" />
    <path
       style="color:#000000;fill:#000000;stroke-linecap:round;stroke-linejoin:round;-inkscape-stroke:none"
       d="m 17995249,17311025 a 60000,60000 0 0 0 -60000,60000 v 1000000 a 60000,60000 0 0 0 60000,60000 60000,60000 0 0 0 60000,-60000 v -1000000 a 60000,60000 0 0 0 -60000,-60000 z"
       id="path446" />
  </g>
  <g
     id="path130">
    <path
       style="color:#000000;fill:#000000;fill-opacity:0;stroke-width:120000;stroke-linecap:round;stroke-linejoin:round;-inkscape-stroke:none"
       d="m 18995249,17371025 a 500000,500000 0 0 0 -1000000,0"
       id="path438" />
    <path
       style="color:#000000;fill:#000000;stroke-linecap:round;stroke-linejoin:round;-inkscape-stroke:none"
       d="m 18495249,16811025 c -73539,0 -146361,14485 -214303,42628 -67941,28142 -129677,69392 -181677,121392 -52000,52000 -93250,113736 -121393,181677 -28142,67942 -42627,140764 -42627,214303 a 60000,60000 0 0 0 60000,60000 60000,60000 0 0 0 60000,-60000 c 0,-57782 11381,-114997 33493,-168381 22112,-53384 54522,-101888 95380,-142746 40858,-40858 89362,-73268 142746,-95380 53384,-22112 110599,-33493 168381,-33493 57782,0 114997,11381 168381,33493 53384,22112 101888,54522 142746,95380 40858,40858 73268,89362 95380,142746 22112,53384 33493,110599 33493,168381 a 60000,60000 0 0 0 60000,60000 60000,60000 0 0 0 60000,-60000 c 0,-73539 -14485,-146361 -42627,-214303 -28143,-67941 -69393,-129677 -121393,-181677 -52000,-52000 -113736,-93250 -181677,-121392 -67942,-28143 -140764,-42628 -214303,-42628 z"
       id="path440" />
  </g>
  <g
     id="path132">
    <path
       style="color:#000000;fill:#000000;fill-opacity:0;stroke-width:120000;stroke-linecap:round;stroke-linejoin:round;-inkscape-stroke:none"
       d="m 16995249,18871025 v -500000"
       id="path432" />
    <path
       style="color:#000000;fill:#000000;stroke-linecap:round;stroke-linejoin:round;-inkscape-stroke:none"
       d="m 16995249,18311025 a 60000,60000 0 0 0 -60000,60000 v 500000 a 60000,60000 0 0 0 60000,60000 60000,60000 0 0 0 60000,-60000 v -500000 a 60000,60000 0 0 0 -60000,-60000 z"
       id="path434" />
  </g>
  <g
     id="path134">
    <path
       style="color:#000000;fill:#000000;fill-opacity:0;stroke-width:120000;stroke-linecap:round;stroke-linejoin:round;-inkscape-stroke:none"
       d="M 16995249,18371025 V 17371025"
       id="path426" />
    <path
       style="color:#000000;fill:#000000;stroke-linecap:round;stroke-linejoin:round;-inkscape-stroke:none"
       d="m 16995249,17311025 a 60000,60000 0 0 0 -60000,60000 v 1000000 a 60000,60000 0 0 0 60000,60000 60000,60000 0 0 0 60000,-60000 v -1000000 a 60000,60000 0 0 0 -60000,-60000 z"
       id="path428" />
  </g>
  <g
     id="path136">
    <path
       style="color:#000000;fill:#000000;fill-opacity:0;stroke-width:120000;stroke-linecap:round;stroke-linejoin:round;-inkscape-stroke:none"
       d="m 16995249,19871025 a 500000,500000 0 0 0 1000000,0"
       id="path420" />
    <path
       style="color:#000000;fill:#000000;stroke-linecap:round;stroke-linejoin:round;-inkscape-stroke:none"
       d="m 16995249,19811025 a 60000,60000 0 0 0 -60000,60000 c 0,73539 14485,146361 42627,214303 28143,67941 69393,129677 121393,181677 52000,52000 113736,93250 181677,121392 67942,28143 140764,42628 214303,42628 73539,0 146361,-14485 214303,-42628 67941,-28142 129677,-69392 181677,-121392 52000,-52000 93250,-113736 121393,-181677 28142,-67942 42627,-140764 42627,-214303 a 60000,60000 0 0 0 -60000,-60000 60000,60000 0 0 0 -60000,60000 c 0,57782 -11381,114997 -33493,168381 -22112,53384 -54522,101888 -95380,142746 -40858,40858 -89362,73268 -142746,95380 -53384,22112 -110599,33493 -168381,33493 -57782,0 -114997,-11381 -168381,-33493 -53384,-22112 -101888,-54522 -142746,-95380 -40858,-40858 -73268,-89362 -95380,-142746 -22112,-53384 -33493,-110599 -33493,-168381 a 60000,60000 0 0 0 -60000,-60000 z"
       id="path422" />
  </g>
  <g
     id="path138">
    <path
       style="color:#000000;fill:#000000;fill-opacity:0;stroke-width:120000;stroke-linecap:round;stroke-linejoin:round;-inkscape-stroke:none"
       d="m 16995249,18871025 v 1000000"
       id="path414" />
    <path
       style="color:#000000;fill:#000000;stroke-linecap:round;stroke-linejoin:round;-inkscape-stroke:none"
       d="m 16995249,18811025 a 60000,60000 0 0 0 -60000,60000 v 1000000 a 60000,60000 0 0 0 60000,60000 60000,60000 0 0 0 60000,-60000 v -1000000 a 60000,60000 0 0 0 -60000,-60000 z"
       id="path416" />
  </g>
  <g
     id="path140">
    <path
       style="color:#000000;fill:#000000;fill-opacity:0;stroke-width:120000;stroke-linecap:round;stroke-linejoin:round;-inkscape-stroke:none"
       d="M 17995249,19871025 V 18871025"
       id="path408" />
    <path
       style="color:#000000;fill:#000000;stroke-linecap:round;stroke-linejoin:round;-inkscape-stroke:none"
       d="m 17995249,18811025 a 60000,60000 0 0 0 -60000,60000 v 1000000 a 60000,60000 0 0 0 60000,60000 60000,60000 0 0 0 60000,-60000 v -1000000 a 60000,60000 0 0 0 -60000,-60000 z"
       id="path410" />
  </g>
  <g
     id="path142">
    <path
       style="color:#000000;fill:#000000;fill-opacity:0;stroke-width:120000;stroke-linecap:round;stroke-linejoin:round;-inkscape-stroke:none"
       d="m 17489743,16248090 a 1500000,1500000 0 0 0 -2494494,1122935"
       id="path402" />
    <path
       style="color:#000000;fill:#000000;stroke-linecap:round;stroke-linejoin:round;-inkscape-stroke:none"
       d="m 16494618,15811025 c -70467,28 -140942,4831 -210938,14413 -148090,20271 -292498,61721 -428796,123077 -136297,61356 -263069,141983 -376428,239407 -113359,97423 -212128,210634 -293278,336158 -81149,125524 -143838,262060 -186143,405419 -42304,143359 -63786,292055 -63786,441526 a 60000,60000 0 0 0 60000,60000 60000,60000 0 0 0 60000,-60000 c 0,-137973 19829,-275231 58880,-407563 39050,-132331 96917,-258364 171824,-374233 74908,-115868 166079,-220370 270718,-310299 104639,-89930 221659,-164355 347472,-220991 125813,-56637 259113,-94898 395812,-113610 136698,-18712 275377,-17681 411782,3062 136405,20742 269121,60982 394078,119483 124957,58501 240858,134658 344148,226133 a 60000,60000 0 0 0 84697,-5137 60000,60000 0 0 0 -5137,-84697 c -111898,-99099 -237457,-181602 -372827,-244978 -135370,-63377 -279146,-106969 -426918,-129440 -77927,-11851 -156539,-17762 -235160,-17730 z"
       id="path404" />
  </g>
  <g
     id="path144">
    <path
       style="color:#000000;fill:#000000;fill-opacity:0;stroke-width:120000;stroke-linecap:round;stroke-linejoin:round;-inkscape-stroke:none"
       d="M 20002571,17371025 A 1507322,1507322 0 0 0 17489744,16248091"
       id="path396" />
    <path
       style="color:#000000;fill:#000000;stroke-linecap:round;stroke-linejoin:round;-inkscape-stroke:none"
       d="m 18495297,15803702 c -80938,-2 -161859,6265 -242031,18793 -148727,23241 -293331,67787 -429354,132265 -136023,64478 -262049,148215 -374193,248632 a 60000,60000 0 0 0 -4674,84724 60000,60000 0 0 0 84724,4674 c 103558,-92728 219934,-170054 345543,-229596 125609,-59541 259141,-100676 396481,-122138 137339,-21461 277055,-23025 414841,-4644 137785,18381 272204,56516 399115,113230 126911,56714 244989,131415 350597,221802 105608,90387 197644,195516 273272,312149 75628,116633 134060,243552 173494,376848 39434,133296 59459,271577 59459,410584 a 60000,60000 0 0 0 60000,60000 60000,60000 0 0 0 60000,-60000 c 0,-150531 -21686,-300279 -64389,-444626 -42704,-144347 -105980,-281791 -187878,-408093 -81898,-126303 -181566,-240149 -295930,-338030 -114363,-97881 -242233,-178776 -379665,-240192 -137433,-61416 -282998,-102713 -432207,-122618 -68777,-9175 -137997,-13762 -207205,-13764 z"
       id="path398" />
  </g>
  <g
     id="path146">
    <path
       style="color:#000000;fill:#000000;fill-opacity:0;stroke-width:120000;stroke-linecap:round;stroke-linejoin:round;-inkscape-stroke:none"
       d="m 22799930,16974579 a 500000,500000 0 0 0 -804681,396446"
       id="path390" />
    <path
       style="color:#000000;fill:#000000;stroke-linecap:round;stroke-linejoin:round;-inkscape-stroke:none"
       d="m 22495138,16811025 c -33458,7 -66885,3012 -99878,8999 -51189,9289 -100834,25666 -147502,48659 -46669,22992 -89906,52376 -128464,87303 -38558,34927 -72061,75056 -99542,119231 -27481,44175 -48673,91964 -62963,141987 -14290,50024 -21540,101796 -21540,153821 a 60000,60000 0 0 0 60000,60000 60000,60000 0 0 0 60000,-60000 c 0,-40877 5696,-81554 16924,-120859 11228,-39305 27879,-76853 49471,-111562 21592,-34708 47916,-66239 78212,-93681 30295,-27443 64267,-50530 100935,-68596 36669,-18065 75675,-30933 115895,-38231 40221,-7299 81261,-8957 121939,-4928 40678,4030 80596,13709 118602,28757 38006,15048 73730,35319 106141,60228 a 60000,60000 0 0 0 84136,-11012 60000,60000 0 0 0 -11012,-84136 c -41250,-31702 -86718,-57501 -135089,-76653 -48371,-19152 -99176,-31470 -150948,-36599 -18403,-1823 -36865,-2732 -55317,-2728 z"
       id="path392" />
  </g>
  <g
     id="path148">
    <path
       style="color:#000000;fill:#000000;fill-opacity:0;stroke-width:120000;stroke-linecap:round;stroke-linejoin:round;-inkscape-stroke:none"
       d="m 32772599,16955000 a 500000,500000 0 0 0 -777350,416025"
       id="path384" />
    <path
       style="color:#000000;fill:#000000;stroke-linecap:round;stroke-linejoin:round;-inkscape-stroke:none"
       d="m 32495123,16811025 c -41328,10 -82556,4594 -122928,13687 -49215,11086 -96707,28771 -141186,52575 -44479,23805 -85538,53511 -122062,88311 -36523,34801 -68177,74377 -94101,117655 -25925,43278 -45882,89861 -59331,138483 -13449,48623 -20266,98841 -20266,149289 a 60000,60000 0 0 0 60000,60000 60000,60000 0 0 0 60000,-60000 c 0,-39638 5356,-79094 15923,-117298 10567,-38204 26248,-74804 46617,-108808 20370,-34005 45240,-65100 73937,-92444 28697,-27343 60958,-50683 95906,-69387 34948,-18703 72262,-32599 110932,-41309 38669,-8710 78338,-12154 117930,-10241 39592,1914 78744,9169 116392,21569 37649,12399 73450,29829 106431,51816 a 60000,60000 0 0 0 83205,-16641 60000,60000 0 0 0 -16641,-83205 c -41976,-27984 -87540,-50167 -135457,-65948 -47917,-15781 -97746,-25015 -148136,-27451 -9054,-437 -18112,-655 -27165,-653 z"
       id="path386" />
  </g>
  <g
     id="path150">
    <path
       style="color:#000000;fill:#000000;fill-opacity:0;stroke-width:120000;stroke-linecap:round;stroke-linejoin:round;-inkscape-stroke:none"
       d="m 22799930,16974579 a 501239,501239 0 0 0 509689,-863237"
       id="path378" />
    <path
       style="color:#000000;fill:#000000;stroke-linecap:round;stroke-linejoin:round;-inkscape-stroke:none"
       d="m 23309351,16051343 a 60000,60000 0 0 0 -51366,29438 60000,60000 0 0 0 21073,82195 c 49831,29494 93368,68506 128132,114815 34763,46309 60070,99006 74481,155090 14410,56084 17641,114453 9507,171784 -8133,57332 -27471,112500 -56912,162362 -29441,49863 -68407,93441 -114679,128254 -46272,34813 -98942,60177 -155010,74647 -56068,14470 -114434,17763 -171774,9691 -57340,-8072 -112528,-27351 -162422,-56739 a 60000,60000 0 0 0 -82150,21248 60000,60000 0 0 0 21248,82150 c 63462,37379 133663,61902 206595,72169 72933,10268 147176,6079 218491,-12326 71315,-18405 138312,-50669 197167,-94948 58854,-44280 108420,-99713 145866,-163134 37447,-63422 62045,-133597 72390,-206518 10346,-72922 6237,-147169 -12092,-218503 -18329,-71335 -50521,-138366 -94738,-197268 -44217,-58903 -99596,-108527 -162978,-146042 a 60000,60000 0 0 0 -30829,-8365 z"
       id="path380" />
  </g>
  <g
     id="path152">
    <path
       style="color:#000000;fill:#000000;fill-opacity:0;stroke-width:120000;stroke-linecap:round;stroke-linejoin:round;-inkscape-stroke:none"
       d="m 17995249,18371025 v 500000"
       id="path372" />
    <path
       style="color:#000000;fill:#000000;stroke-linecap:round;stroke-linejoin:round;-inkscape-stroke:none"
       d="m 17995249,18311025 a 60000,60000 0 0 0 -60000,60000 v 500000 a 60000,60000 0 0 0 60000,60000 60000,60000 0 0 0 60000,-60000 v -500000 a 60000,60000 0 0 0 -60000,-60000 z"
       id="path374" />
  </g>
  <g
     id="path154">
    <path
       style="color:#000000;fill:#000000;fill-opacity:0;stroke-width:120000;stroke-linecap:round;stroke-linejoin:round;-inkscape-stroke:none"
       d="m 32772599,16954999 a 499999,499999 0 0 0 554700,-832048"
       id="path366" />
    <path
       style="color:#000000;fill:#000000;stroke-linecap:round;stroke-linejoin:round;-inkscape-stroke:none"
       d="m 33327506,16062951 a 60000,60000 0 0 0 -50124,26709 60000,60000 0 0 0 16626,83208 c 48065,32057 89346,73265 121487,121274 32142,48009 54513,101877 65838,158531 11325,56654 11382,114982 167,171658 -11215,56677 -33481,110588 -65529,158659 -32048,48072 -73248,89361 -121251,121511 -48003,32151 -101866,54532 -158518,65868 -56653,11336 -114981,11404 -171659,200 -56678,-11204 -110594,-33460 -158671,-65499 a 60000,60000 0 0 0 -83202,16656 60000,60000 0 0 0 16656,83202 c 61189,40776 129811,69103 201946,83363 72134,14259 146373,14173 218474,-254 72102,-14428 140658,-42914 201751,-83832 61094,-40918 113533,-93470 154320,-154650 40788,-61181 69128,-129798 83401,-201930 14273,-72132 14201,-146371 -213,-218475 -14414,-72104 -42887,-140665 -83794,-201767 -40906,-61101 -93447,-113550 -154620,-154349 a 60000,60000 0 0 0 -33085,-10083 z"
       id="path368" />
  </g>
  <g
     id="path156">
    <path
       style="color:#000000;fill:#000000;fill-opacity:0;stroke-width:120000;stroke-linecap:round;stroke-linejoin:round;-inkscape-stroke:none"
       d="m 20995249,17371025 v 1000000"
       id="path360" />
    <path
       style="color:#000000;fill:#000000;stroke-linecap:round;stroke-linejoin:round;-inkscape-stroke:none"
       d="m 20995249,17311025 a 60000,60000 0 0 0 -60000,60000 v 1000000 a 60000,60000 0 0 0 60000,60000 60000,60000 0 0 0 60000,-60000 v -1000000 a 60000,60000 0 0 0 -60000,-60000 z"
       id="path362" />
  </g>
  <g
     id="path158">
    <path
       style="color:#000000;fill:#000000;fill-opacity:0;stroke-width:120000;stroke-linecap:round;stroke-linejoin:round;-inkscape-stroke:none"
       d="m 22995249,18871025 a 1500000,1500000 0 0 0 3000000,0"
       id="path354" />
    <path
       style="color:#000000;fill:#000000;stroke-linecap:round;stroke-linejoin:round;-inkscape-stroke:none"
       d="m 22995249,18811025 a 60000,60000 0 0 0 -60000,60000 c 0,102184 10040,204121 29975,304341 19935,100220 49669,198240 88773,292645 39104,94406 87389,184741 144159,269704 56771,84962 121752,164142 194006,236396 72255,72255 151435,137236 236397,194006 84963,56771 175298,105056 269704,144160 94405,39104 192425,68837 292645,88772 100220,19935 202157,29975 304341,29975 102184,0 204121,-10040 304341,-29975 100220,-19935 198240,-49668 292645,-88772 94406,-39104 184741,-87389 269704,-144160 84962,-56770 164142,-121751 236397,-194006 72254,-72254 137235,-151434 194006,-236396 56770,-84963 105055,-175298 144159,-269704 39104,-94405 68838,-192425 88773,-292645 19935,-100220 29975,-202157 29975,-304341 a 60000,60000 0 0 0 -60000,-60000 60000,60000 0 0 0 -60000,60000 c 0,94323 -9268,188419 -27669,280930 -18402,92511 -45848,182991 -81944,270134 -36097,87144 -80667,170530 -133071,248957 -52403,78427 -112385,151516 -179082,218213 -66697,66696 -139786,126679 -218213,179082 -78427,52403 -161813,96974 -248957,133070 -87143,36096 -177623,63543 -270134,81944 -92511,18402 -186607,27669 -280930,27669 -94323,0 -188419,-9267 -280930,-27669 -92511,-18401 -182991,-45848 -270134,-81944 -87144,-36096 -170530,-80667 -248957,-133070 -78427,-52403 -151516,-112386 -218213,-179082 -66697,-66697 -126679,-139786 -179082,-218213 -52404,-78427 -96974,-161813 -133071,-248957 -36096,-87143 -63542,-177623 -81944,-270134 -18401,-92511 -27669,-186607 -27669,-280930 a 60000,60000 0 0 0 -60000,-60000 z"
       id="path356" />
  </g>
  <g
     id="path160">
    <path
       style="color:#000000;fill:#000000;fill-opacity:0;stroke-width:120000;stroke-linecap:round;stroke-linejoin:round;-inkscape-stroke:none"
       d="m 23995249,18871025 a 500000,500000 0 0 0 -1000000,0"
       id="path348" />
    <path
       style="color:#000000;fill:#000000;stroke-linecap:round;stroke-linejoin:round;-inkscape-stroke:none"
       d="m 23495249,18311025 c -73539,0 -146361,14485 -214303,42628 -67941,28142 -129677,69392 -181677,121392 -52000,52000 -93250,113736 -121393,181677 -28142,67942 -42627,140764 -42627,214303 a 60000,60000 0 0 0 60000,60000 60000,60000 0 0 0 60000,-60000 c 0,-57782 11381,-114997 33493,-168381 22112,-53384 54522,-101888 95380,-142746 40858,-40858 89362,-73268 142746,-95380 53384,-22112 110599,-33493 168381,-33493 57782,0 114997,11381 168381,33493 53384,22112 101888,54522 142746,95380 40858,40858 73268,89362 95380,142746 22112,53384 33493,110599 33493,168381 a 60000,60000 0 0 0 60000,60000 60000,60000 0 0 0 60000,-60000 c 0,-73539 -14485,-146361 -42627,-214303 -28143,-67941 -69393,-129677 -121393,-181677 -52000,-52000 -113736,-93250 -181677,-121392 -67942,-28143 -140764,-42628 -214303,-42628 z"
       id="path350" />
  </g>
</svg>
