<?xml version="1.0" encoding="UTF-8" standalone="no"?>
<svg
   version="1.1"
   width="16.352512cm"
   height="4.0519361cm"
   viewBox="0 0 1.6352512e+08 40519363"
   id="svg172"
   sodipodi:docname="murmur_logo_transparent.svg"
   inkscape:version="1.2.2 (b0a8486, 2022-12-01)"
   xmlns:inkscape="http://www.inkscape.org/namespaces/inkscape"
   xmlns:sodipodi="http://sodipodi.sourceforge.net/DTD/sodipodi-0.dtd"
   xmlns="http://www.w3.org/2000/svg"
   xmlns:svg="http://www.w3.org/2000/svg"
   xmlns:rdf="http://www.w3.org/1999/02/22-rdf-syntax-ns#"
   xmlns:cc="http://creativecommons.org/ns#"
   xmlns:dc="http://purl.org/dc/elements/1.1/">
  <defs
     id="defs176">
    <linearGradient
       id="linearGradient2089"
       inkscape:swatch="solid">
      <stop
         style="stop-color:#000000;stop-opacity:1;"
         offset="0"
         id="stop2087" />
    </linearGradient>
  </defs>
  <sodipodi:namedview
     id="namedview174"
     pagecolor="#ffffff"
     bordercolor="#000000"
     borderopacity="0.25"
     inkscape:showpageshadow="2"
     inkscape:pageopacity="0.0"
     inkscape:pagecheckerboard="0"
     inkscape:deskcolor="#d1d1d1"
     inkscape:document-units="cm"
     showgrid="false"
     inkscape:zoom="1.2761678"
     inkscape:cx="320.49077"
     inkscape:cy="60.728692"
     inkscape:window-width="1547"
     inkscape:window-height="981"
     inkscape:window-x="0"
     inkscape:window-y="25"
     inkscape:window-maximized="0"
     inkscape:current-layer="svg172" />
  <title
     id="title2">SVG Picture created as Untitled-F_Silkscreen.svg date 2023/06/29 23:35:55 </title>
  <desc
     id="desc4">Picture generated by PCBNEW </desc>
  <path
     id="path702"
     style="color:#000000;fill:#090909;fill-rule:evenodd;stroke-linecap:round;stroke-linejoin:round;-inkscape-stroke:none"
     d="m 31173808,0 c -51413,-2.2646212 -102576,457.83734 -153996,1033.5286 -658174,7368.8494 -1314934,61673.9844 -1965255,163297.5214 -650321,101623.55 -1292804,250120.63 -1921846,443900.55 -629044,193779.94 -1243356,432749.8 -1838131,714685.1 -594775,281935.2 -1168464,606214.2 -1716691,970483.4 -425633,282811.4 -819481,608566.5 -1210779,936893.7 -389702,-323301 -782250,-644241 -1205611,-922424.3 C 20615282,1948960.5 20043964,1630010 19452043,1352889 18860120,1075768 18249195,841278.16 17623730,651639.81 16998267,462001.45 16359923,317883.41 15713769,219624.84 15067618,121366.25 14415513,69455.128 13761951,64595.54 c -33188,-246.776 -66550,-511.89 -99736,-516.764 -620313,-91.104 -1240008,41952.434 -1854667,126090.494 -647541,88639.26 -1287948,223793.13 -1916162.2,404109.7 -628214.4,180316.57 -1242670.1,405572.35 -1838647.4,673860.63 -595977.2,268288.5 -1171916.4,578912.2 -1723409,929659.1 -551492.8,350746.8 -1076838.8,740856.2 -1572513.8,1166853.8 -495674.9,425997.6 -960425,886750.1 -1390096.1,1379244 -429671,492493.9 -823385.1,1015375.9 -1178222.6,1564245.6 -354837.4,548869.6 -669866.1,1122208.2 -942578.1,1716174.3 C 973206.67,8618282.4 743604.58,9231456.6 558622.23,9858312.9 373639.87,10485169 234011.17,11124509 140559.9,11771374 47108.617,12418240 -0.22405376,13070645 0,13724227 v 8756571 13135116 c 65.118639,321157 31856.926,641555 94567.871,956530 62710.939,314978 156105.299,623147 279052.729,919841 122947.45,296695 274741.94,580483 453202.31,847493 178460.29,267012 382664.89,515520 609781.89,742591 227117,227071 476059.4,431376 743107.1,609782 267047.7,178405 550774.8,330315 847493.5,453202 296718.6,122887 604850.6,216406 919840.5,279053 314989.8,62647 635371.7,94051 956530.7,94051 321159.2,0 641541,-31404 956530.8,-94051 314989.8,-62647 623121.9,-156166 919840.5,-279053 296718.7,-122887 580445.6,-274797 847493.5,-453202 267047.7,-178406 515990.1,-382711 743107.1,-609782 227116.8,-227071 431321.3,-475579 609781.9,-742591 178460.3,-267010 330254.9,-550798 453202.3,-847493 122947.3,-296694 216858.4,-604863 279569.5,-919841 62710.9,-314975 93986,-635373 94051.1,-956530 v -13135116 -8756054 -517 c 127,-252140 25143.6,-504095 74414,-751376 49304.1,-247448 123003.7,-489356 219624.7,-722436 96621,-233081 215824,-455835 356051,-665592 140226,-209758 300594,-405564 479040,-583944 178446,-178379 374133,-338376 583944,-478524 209810,-140149 432992,-259516 666109,-356051 233116,-96532 474970,-169895.4 722437,-219107.6 247466,-49212.4 499061,-73897.3 751375,-73897.3 252313,0 503909,24684.9 751375,73897.3 247468,49212.2 489838,122575.6 722954,219107.6 233115,96535 455782,215902 665592,356051 209811,140148 405498,300145 583944,478524 178446,178380 338814,374186 479040,583944 140227,209757 259947,432511 356568,665592 96621,233080 169803,474988 219108,722436 49270,247281 74287,499752 74414,751893 v 8756054 4378544 8756572 c 0,321199 31388,641502 94051,956530 62664,315030 156135,623090 279053,919841 122918,296751 274752,580426 453202,847493 178450,267069 382659,515984 609782,743108 227124,227122 476038,431848 743107,610298 267070,178450 551258,329768 848010,452686 296751,122919 604811,216391 919841,279052 315027,62663 635330,94568 956530,94568 321201,0 641504,-31905 956531,-94568 315030,-62661 623090,-156133 919841,-279052 296750,-122918 580940,-274236 848010,-452686 267069,-178450 515983,-383176 743107,-610298 227123,-227124 431332,-476039 609782,-743108 178450,-267067 330284,-550742 453202,-847493 122918,-296751 216389,-604811 279053,-919841 62663,-315028 94051,-635331 94051,-956530 v -8756572 -4378544 -8756571 c 0,-252373 24661,-503852 73897,-751376 49236,-247522 123046,-489790 219625,-722953 96579,-233162 215840,-456269 356051,-666109 140211,-209841 300587,-405490 479040,-583944 178455,-178455 374103,-338829 583944,-479040 209841,-140211 432947,-259472 666109,-356051 233163,-96579 474913,-169872.4 722437,-219107.9 247524,-49235.3 499518,-74414.1 751892,-74414.1 252373,0 504368,25178.8 751892,74414.1 247524,49235.5 489275,122528.9 722436,219107.9 233162,96579 456269,215840 666110,356051 209839,140211 405490,300585 583943,479040 178455,178454 338830,374103 479041,583944 140211,209840 259473,432947 356050,666109 96579,233163 170389,475431 219625,722953 49236,247524 73898,499003 73898,751376 v 8756571 4378544 c 0,894774 87954,1787373 262516,2664954 174562,877581 434799,1735971 777213,2562634 342416,826664 765345,1617636 1262456,2361613 497109,743977 1065904,1436941 1698604,2069641 632700,632702 1326181,1202013 2070158,1699121 743978,497111 1534950,920041 2361613,1262456 826663,342413 1685053,602651 2562634,777213 877581,174562 1770180,262516 2664954,262516 894774,0 1787372,-87954 2664953,-262516 877581,-174562 1735970,-434800 2562635,-777213 826663,-342415 1617634,-765345 2361612,-1262456 743979,-497108 1437458,-1066419 2070158,-1699121 632702,-632700 1201494,-1325664 1698605,-2069641 497109,-743977 920039,-1534949 1262455,-2361613 342416,-826663 602653,-1685053 777213,-2562634 174562,-877581 262517,-1770180 262517,-2664954 v -4378544 -8756571 c 0,-357941 49992,-714161 148311,-1058334 98320,-344171 243974,-672755 433049,-976684 189073,-303928 419429,-580319 684712,-820622 265285,-240304 563096,-442288 884184,-600480 321087,-158192 662735,-270952.5 1014925,-334863.2 352189,-63911 711439,-78177.8 1067635,-42891.5 356197,35286.5 705893,119895.7 1038697,251664.7 332803,131768 645333,309500 929142,527616 a 525390,525390 0 0 0 24288,-3101 525390,525390 0 0 0 29455,38758 c 277186,163278 569632,299038 873332,405143 303701,106105 616786,182518 935343,227376 318560,44858 641024,57902 962216,39791 321190,-18111 639866,-67410 951363,-147795 311495,-80383 614490,-191156 904337,-330729 289848,-139573 565098,-307341 822172,-500744 257073,-193406 494567,-411826.5 709001,-651640.2 214433,-239813.4 404879,-499678.3 568441,-776696.7 163561,-277018.6 299245,-569740.2 405660,-873331.7 106415,-303591.5 182709,-616830.6 227893,-935343.5 45183,-318512.6 59124,-640488.6 41341,-961698.4 -17782,-321209.6 -67212,-640300.9 -147278,-951879.8 -80066,-311578.8 -190419,-614348 -329696,-904337.6 -139275,-289989.6 -306569,-565418.1 -499711,-822688.8 -193142,-257270.6 -411011,-495356.4 -650606,-710034.2 -232522,-208340.8 -486243,-391362.6 -753959,-551904.3 a 525390,525390 0 0 0 -5168,-6201.1 c -2405,-1555 -5345,-2063.9 -7751,-3617.4 -3502,-2084.1 -6312,-5159.2 -9819,-7234.7 a 525390,525390 0 0 0 -13436,-3617.3 C 72566039,1583211.6 71466873,1062768.5 70311987,698148.6 69729734,514320.68 69135912,369465.39 68534318,265100.1 67932721,160734.79 67324938,96927.587 66714790,73897.298 c -171602,-6477.27 -343565,-9814.512 -515214,-9818.522 -438655,-10.249 -876794,21358.518 -1313614,63562.014 -607752,58717.9 -1211123,157726.83 -1805575,297139.48 -1190242,279138.79 -2337376,716764.73 -3411161,1301212.53 -1073785,584447.9 -2064425,1310521.3 -2945040,2158524.6 -880616,848003.1 -1643544,1810348 -2268079,2861324 -624533,1050976.1 -1105018,2181135.9 -1428853,3360001.6 -161736,588770 -283754,1187551 -365352,1792655 -81600,605105 -122474,1215146 -122474,1825729 v 8756571 4378544 c 0,252373 -25178,503852 -74414,751376 -49236,247522 -122529,489790 -219108,722953 -96579,233162 -215839,456269 -356050,666109 -140211,209841 -300586,405490 -479041,583944 -178455,178455 -374103,338829 -583944,479040 -209839,140211 -432947,259472 -666109,356051 -233163,96579 -475429,169872 -722953,219108 -247524,49235 -499004,73897 -751375,73897 -252374,0 -504370,-24662 -751892,-73897 -247524,-49236 -489274,-122529 -722437,-219108 -233162,-96579 -456268,-215840 -666109,-356051 -209841,-140211 -405489,-300585 -583944,-479040 -178455,-178454 -338831,-374103 -479040,-583944 -140211,-209840 -259472,-432947 -356051,-666109 -96579,-233163 -170389,-475431 -219625,-722953 -49236,-247524 -73897,-499003 -73897,-751376 v -4374410 l 64079,-8756571 a 525390,525390 0 0 0 -517,-2584 525390,525390 0 0 0 517,-1550 c 0,-658215 -47257,-1315387 -141594,-1966805 -94337,-651420 -235470,-1295325 -422196,-1926497.6 -186726,-631172.9 -418756,-1247987.2 -694015,-1845882.1 -275257,-597894.9 -592737,-1175271.6 -950846,-1727543.1 C 42330758,5705227.5 41933357,5179196.9 41499792,4683951.8 41066229,4188706.7 40597361,3725466 40097294,3297473.1 39597225,2869480.4 39067074,2477872 38510827,2125968.4 37954582,1774065.1 37373887,1462790.5 36772949,1194242.3 36172010,925694.36 35552540,700546.12 34919315,520898.43 34286092,341250.75 33640600,207444.08 32988167,120406.09 32386705,40167.934 31780485,26.722524 31173808,0 Z m 87565712,0 c -51410,-2.2818544 -103090,457.85517 -154510,1033.5286 -658180,7368.6211 -1314940,61674.3054 -1965260,163297.5214 -650300,101623.23 -1292290,250121.03 -1921330,443900.55 -629020,193779.54 -1243350,432750.2 -1838130,714685.1 -594780,281934.7 -1168460,606214.7 -1716690,970483.4 -425660,282827.9 -819970,608544.7 -1211290,936893.7 -389680,-323278.4 -781760,-644258.1 -1205100,-922424.3 -546210,-358908.8 -1117530,-677859.7 -1709450,-954980.5 -591920,-277120.8 -1202850,-511611.01 -1828320,-701249.19 -625440,-189638.17 -1263800,-333756.54 -1909960,-432014.97 -646150,-98258.45 -1298770,-150169.81 -1952330,-155029.3 -33190,-246.772 -66560,-511.895 -99740,-516.764 -620320,-91.014 -1239490,41952.384 -1854148,126090.494 -647541,88639.31 -1287948,223793.12 -1916162,404109.7 -628213,180316.59 -1242670,405572.35 -1838648,673860.63 -595976,268288.5 -1171915,578912.2 -1723409,929659.1 -551492,350746.7 -1077356,740856.3 -1573030,1166853.8 -495676,425997.5 -959909,886750.2 -1389579,1379244 -428538,491194.2 -821016,1012828.2 -1175122,1560111.4 -1000,1545.2 -2619,2588.5 -3618,4134.2 -1136,1756.8 -1449,3927 -2584,5684.4 -353400,547217.5 -667667,1118488.2 -939477,1710489.9 -272713,593965.9 -502832,1207140.3 -687814,1833996.5 -184981,626856.1 -324610,1266197.1 -418062,1913061.1 -93451,646866 -140560,1299271 -140560,1952853 v 8756571 4378544 c 0,252373 -24661,503852 -73897,751376 -49236,247522 -122529,489790 -219108,722953 -96579,233162 -215840,456269 -356051,666109 -140211,209841 -300585,405490 -479040,583944 -178455,178455 -374103,338829 -583944,479040 -209841,140211 -432947,259472 -666109,356051 -233163,96579 -475431,169872 -722953,219108 -247524,49235 -499003,73897 -751376,73897 -252372,0 -504368,-24662 -751892,-73897 -247524,-49236 -489790,-122529 -722953,-219108 -233162,-96579 -456270,-215840 -666109,-356051 -209841,-140211 -404972,-300585 -583427,-479040 -178455,-178454 -339347,-374103 -479558,-583944 -140209,-209840 -259471,-432947 -356050,-666109 -96579,-233163 -169872,-475431 -219108,-722953 -49236,-247524 -73898,-499003 -73898,-751376 0,-321199 -31388,-642019 -94051,-957047 -62664,-315030 -156134,-623090 -279052,-919841 -122918,-296749 -274753,-580424 -453203,-847493 -178448,-267069 -382659,-515985 -609782,-743107 -227122,-227124 -476038,-431332 -743107,-609782 -267068,-178450 -551258,-330286 -848010,-453202 -296751,-122919 -604812,-216390 -919840,-279053 -315029,-62663 -635330,-94568 -956531,-94568 -321202,0 -642019,31905 -957048,94568 -315028,62663 -623089,156134 -919840,279053 -296752,122916 -580424,274752 -847494,453202 -267067,178450 -515983,382658 -743107,609782 -227123,227122 -431332,476038 -609782,743107 -178448,267069 -330284,550744 -453202,847493 -122918,296751 -216389,604811 -279053,919841 -62663,315028 -94051,635848 -94051,957047 247,894617 88290,1787053 263033,2664437 174744,877385 435204,1735670 777731,2562118 342525,826447 765303,1616819 1262455,2360579 497150,743761 1066445,1437140 1699121,2069641 632676,632503 1325743,1201142 2069641,1698088 743897,496944 1534555,919642 2361096,1261938 826542,342299 1685201,602713 2562634,777214 877435,174500 1769820,262516 2664437,262516 894616,0 1787004,-88016 2664437,-262516 877433,-174501 1735574,-434915 2562118,-777214 826541,-342296 1617199,-764994 2361096,-1261938 743898,-496946 1437480,-1065585 2070158,-1698088 632676,-632501 1201452,-1325880 1698604,-2069641 497150,-743760 920445,-1534132 1262972,-2360579 342527,-826448 602986,-1684733 777730,-2562118 174743,-877384 262786,-1769820 263033,-2664437 v -4378544 -8756054 -517 c 303,-252028 25015,-503202 74414,-750342 49433,-247309 123442,-488993 220142,-721920 96699,-232926 215796,-455989 356051,-665592 140254,-209604 300612,-405189 479040,-583427 178429,-178237 374190,-338492 583944,-478524 209753,-140031 432563,-259083 665592,-355534 233029,-96451 475070,-169422.3 722440,-218591 247360,-49168.9 499170,-74414.1 751370,-74414.1 252200,0 503490,25245.2 750860,74414.1 247360,49168.7 489420,122140 722440,218591 233030,96451 455840,215503 665590,355534 209760,140032 405520,300287 583940,478524 178430,178238 338780,373823 479040,583427 140250,209603 259870,432666 356570,665592 96700,232927 170190,474611 219630,721920 49390,247140 74110,498831 74410,750859 v 8756054 4378544 8756572 c 0,321200 31910,641502 94570,956530 62670,315029 156130,623090 279050,919841 122920,296752 274750,580426 453200,847493 178450,267070 382680,515984 609780,743108 227120,227121 476040,431848 743110,610298 267060,178450 550750,329767 847500,452686 296760,122918 604810,216391 919840,279052 315030,62663 635830,94568 957040,94568 321200,0 641500,-31905 956530,-94568 315030,-62661 623100,-156134 919840,-279052 296750,-122919 580430,-274236 847500,-452686 267060,-178450 515990,-383177 743110,-610298 227120,-227124 431330,-476038 609780,-743108 178450,-267067 330280,-550741 453200,-847493 122920,-296751 216380,-604812 279050,-919841 62660,-315028 94570,-635330 94570,-956530 v -8756572 -4378544 -8756054 -517 c 240,-252067 25060,-503669 74410,-750859 49390,-247355 122960,-488941 219630,-721920 96670,-232978 215810,-455935 356050,-665592 140250,-209657 301130,-405141 479560,-583427 178430,-178287 373650,-338452 583420,-478524 209770,-140070 433050,-259570 666110,-356050 233060,-96479 475040,-169407.8 722440,-218591.5 247400,-49183.9 498620,-74414.1 750860,-74414.1 252240,0 503970,25230.2 751370,74414.1 247400,49183.7 489380,122112.5 722440,218591.5 233060,96480 456340,215980 666110,356050 209780,140072 405000,300237 583430,478524 178440,178286 339300,373770 479550,583427 140240,209657 259380,432614 356050,665592 96680,232979 170250,474565 219630,721920 49360,247190 74170,499308 74410,751376 v 8756054 4378544 c 0,894774 87960,1787373 262520,2664954 174560,877581 434800,1735971 777210,2562634 342420,826663 765350,1617636 1262460,2361613 497110,743977 1066420,1436941 1699120,2069641 632700,632702 1325660,1202013 2069640,1699121 743980,497111 1534950,920041 2361610,1262456 826670,342413 1685060,602651 2562640,777213 877590,174562 1770170,262516 2664950,262516 894770,0 1787390,-87954 2664950,-262516 877580,-174562 1735970,-434800 2562640,-777213 826660,-342415 1617630,-765345 2361610,-1262456 743980,-497108 1437460,-1066419 2070160,-1699121 632700,-632700 1202010,-1325664 1699120,-2069641 497110,-743977 919520,-1534950 1261940,-2361613 342420,-826663 603170,-1685053 777730,-2562634 174570,-877581 262000,-1770180 262000,-2664954 v -4378544 -8756571 c 0,-347094 47000,-692278 139530,-1026811 92530,-334533 229870,-655156 408240,-952913 178360,-297759 396230,-570337 647500,-809770 251290,-239434 533730,-443419 839750,-607198 306020,-163779 632900,-285465 971510,-361735.1 338610,-76269.8 685810,-106676.2 1032500,-89917 346680,16759.1 689920,80560.1 1019570,189136.1 329680,108575 642930,261186 931730,453719 a 525390,525390 0 0 0 520,0 525390,525390 0 0 0 510,0 c 267160,177706 550830,328899 847500,451135 296800,122294 604880,215425 919840,277502 314950,62078 635000,93023 956010,92501 321010,-522 641270,-32499 956020,-95601 314740,-63102 622910,-156830 919320,-280086 296400,-123259 579780,-275551 846460,-454236 266680,-178685 515340,-383047 742070,-610298.9 226720,-227251.8 430180,-476527.7 608240,-743623.9 178070,-267096 329590,-550805.3 452160,-847493.5 122570,-296688.3 215650,-604948.1 278020,-919840.5 62370,-314892.1 93760,-635004.4 93540,-956013.9 -220,-321009.6 -31760,-641208.9 -94570,-956014 -62810,-314805.3 -156590,-622806.5 -279570,-919323.8 -122980,-296517.3 -274760,-580128.7 -453200,-846976.7 -178440,-266847.7 -382740,-515654.7 -609780,-742590.3 -227040,-226935.7 -475660,-430952.5 -742590,-609265.1 a 525390,525390 0 0 0 -520,0 c -320,-214.7 -710,-302.2 -1030,-516.8 -1023660,-682307.8 -2134690,-1223346.3 -3303160,-1608170.57 -583760,-192253.64 -1179560,-344837.57 -1783870,-456819.66 -604320,-111982.09 -1215470,-183231.87 -1829350,-212906.9 -220610,-10664.466 -441740,-16061.531 -662490,-16019.694 -393520,74.579 -787000,17096.721 -1179260,51159.664 -612290,53171.43 -1219940,147618.69 -1819520,282670.09 -599580,135051.37 -1189310,310556.04 -1765270,525032.55 -575960,214476.52 -1137090,467573.42 -1678970,757576.52 -1084990,580666.8 -2086660,1305494.8 -2977590,2154390.4 -890920,848895.8 -1663090,1813909 -2295470,2869592.3 -315830,527241 -595640,1075276.9 -837680,1640209.9 -242040,564933.2 -445410,1145521.8 -609260,1737878.8 -163840,592356 -287840,1195010 -370520,1804024 -82670,609011 -124020,1223014 -124020,1837614 v 8756571 4378544 c 0,252373 -24670,503851 -73900,751376 -49240,247522 -122530,489791 -219110,722953 -96580,233163 -215840,456268 -356050,666109 -140210,209841 -301110,405489 -479560,583944 -178460,178454 -373580,338829 -583420,479040 -209840,140211 -432950,259472 -666110,356051 -233160,96579 -475440,169873 -722960,219108 -247530,49236 -499520,73897 -751890,73897 -252380,0 -503840,-24661 -751370,-73897 -247520,-49235 -489800,-122529 -722960,-219108 -233160,-96579 -456270,-215840 -666110,-356051 -209840,-140211 -405480,-300586 -583940,-479040 -178450,-178455 -338830,-374103 -479040,-583944 -140210,-209841 -259470,-432946 -356050,-666109 -96580,-233162 -169870,-475431 -219110,-722953 -49230,-247525 -73900,-499003 -73900,-751376 v -4374410 l 64080,-8756571 a 525390,525390 0 0 0 -1030,-3101 525390,525390 0 0 0 1030,-1033 c 0,-658215 -47770,-1315387 -142110,-1966805 -94340,-651419 -234950,-1295326 -421680,-1926497.6 -186720,-631172.4 -418760,-1247987.5 -694010,-1845882.1 -275260,-597894.5 -593260,-1175271.9 -951370,-1727543.1 -358110,-552271.3 -755500,-1078302.7 -1189070,-1573547.4 -433560,-495244.8 -902430,-958486.1 -1402500,-1386478.7 -500060,-427992.5 -1030230,-819601.3 -1586470,-1171504.7 -556230,-351903.2 -1136930,-663177.9 -1737870,-931726.1 -600940,-268547.84 -1220420,-493696.15 -1853640,-673343.87 -633230,-179647.71 -1278720,-313454.22 -1931150,-400492.34 C 119951900,40167.817 119346200,26.925881 118739520,0 Z M 31031181,1051615.4 c 607780,-6804.7 1215495,30213.3 1817977,110587.6 602481,80374 1198612,204110 1783353,370003.2 584743,165893.2 1156593,373163.7 1711524,621150.7 554928,247987.2 1091411,535968.7 1605070,860929.4 513657,324960.6 1003246,686363.4 1465026,1081587.7 461781,395224.3 894642,823214.3 1295012,1280542 400368,457327.4 766918,942636.6 1097607,1452624.5 330692,509987.9 624316,1043133.4 878500,1595251.4 254183,552118.3 468359,1121957.5 640787,1704805.1 172429,582849 303045,1177160 390157,1778703 87090,601374 130717,1208264 130742,1815910 l -64079,8753471 a 525390,525390 0 0 0 1034,2584 525390,525390 0 0 0 -1034,1033 v 4378544 c 0,321201 31388,641501 94051,956531 62664,315030 156135,623090 279053,919841 122918,296749 274752,580941 453202,848010 178450,267069 382659,515466 609782,742590 227124,227124 476038,431849 743107,610299 267070,178450 551260,329767 848010,452685 296751,122919 604811,216390 919841,279053 315029,62663 635329,94568 956531,94568 321199,0 641503,-31905 956530,-94568 315030,-62663 623090,-156134 919841,-279053 296752,-122918 580940,-274235 848010,-452685 267069,-178450 515983,-383175 743107,-610299 227123,-227124 431332,-475521 609782,-742590 178450,-267069 330286,-551261 453202,-848010 122918,-296751 216389,-604811 279053,-919841 62663,-315030 94051,-635330 94051,-956531 v -4378544 -8756571 c 0,-563615 37849,-1126610 113172,-1685169 75323,-558557 188152,-1111199 337447,-1654679 298923,-1088186.2 742289,-2131485.8 1318782,-3101619.4 576495,-970133.8 1280534,-1858408.8 2093413,-2641182.5 812877,-782773.8 1727509,-1453151.7 2718697,-1992643.2 991188,-539491.5 2049958,-943293.1 3148645,-1200960.3 548724,-128688.5 1105562,-220200.7 1666565,-274401.8 561000,-54201.3 1125055,-70868.2 1688269,-49609.4 563212,21258.8 1124682,80396.1 1680000,176733.4 555320,96337.2 1103265,229771.4 1640727,399458.8 1076137,339756.9 2101727,822378.8 3049426,1435054.5 a 525390,525390 0 0 0 10852,2067.1 525390,525390 0 0 0 6718,8785 c 217658,128813.7 422449,278740.6 610816,447517.9 188367,168777.3 359752,355325.2 511596,557588.7 151847,202263.4 283243,419002.2 392741,646988.9 109498,227986.8 196469,466107.9 259416,711067.7 62948,244959.9 101774,495743.1 115755,748274.8 13980,252531.6 2967,505614.7 -32556,756026.2 -35522,250411.3 -95655,497192 -179317,735872.3 -83663,238680.5 -190252,468474 -318844,686263.1 -128591,217788.9 -278416,422276.5 -447001,610815.4 -168585,188539 -355480,360060.8 -557589,512113.4 -202106,152052.9 -418597,284043.5 -646472,393774.4 -227873,109731 -465655,196737 -710551,259932 -244894,63198 -495758,102034 -748274,116272 -252518,14239 -505579,3745 -756027,-31522 -250446,-35267 -497106,-94865 -735872,-178284 -238766,-83419 -468342,-190474.9 -686263,-318843.4 a 525390,525390 0 0 0 -7235,2067 c -346320,-258407.6 -720465,-478024.9 -1122412,-637170.4 -423565,-167705 -868543,-275484.1 -1321883,-320393.9 -161148,-15963.8 -322630,-23803.3 -484208,-23771.1 -292972,58.3 -585978,26638.5 -874882,79064.9 -448238,81340.5 -882742,224480.5 -1291394,425813.8 -408654,201333.3 -787363,458456.7 -1124996,764294.1 -337634,305838 -630626,657566 -871265,1044381 -240637,386816 -426254,805299 -551387,1243335 -125133,438035 -188619,891129 -188619,1346688 v 8756571 4378544 c 0,825946 -81228,1649722 -242363,2459798 -161132,810077 -401711,1602157 -717785,2365231 -316077,763075 -706432,1493480 -1165304,2180228 -458870,686751 -983830,1326962 -1567863,1910995 -584032,584031 -1224246,1108992 -1910994,1567863 -686751,458870 -1416638,849229 -2179712,1165303 -763075,316076 -1555671,556135 -2365747,717269 -810075,161134 -1633852,242363 -2459798,242363 -825948,0 -1649722,-81229 -2459799,-242363 -810076,-161134 -1602670,-401193 -2365747,-717269 -763074,-316074 -1492962,-706433 -2179711,-1165303 -686750,-458871 -1326963,-983832 -1910995,-1567863 -584031,-584033 -1109508,-1224244 -1568380,-1910995 -458870,-686748 -848711,-1417153 -1164786,-2180228 -316076,-763074 -556652,-1555154 -717786,-2365231 -161135,-810076 -242363,-1633852 -242363,-2459798 v -4378544 -8756571 c 0,-321201 -31388,-641501 -94051,-956531 -62664,-315030 -156134,-623091 -279052,-919840 -122918,-296751 -274753,-580942 -453203,-848011 -178448,-267067 -382659,-515983 -609782,-743107 -227122,-227124 -476038,-431332.3 -743107,-609781.7 -267068,-178449.4 -551258,-330284.3 -848010,-453202.3 -296751,-122918.1 -604812,-216389.8 -919840,-279052.7 -315029,-62663.2 -635330,-94051.1 -956531,-94051.1 -321202,0 -641502,31387.9 -956531,94051.1 -315030,62662.9 -623091,156134.6 -919840,279052.7 -296752,122918 -580941,274752.9 -848011,453202.3 -267067,178449.4 -515983,382657.7 -743107,609781.7 -227123,227124 -431332,476040 -609782,743107 -178448,267069 -330284,551260 -453202,848011 -122918,296749 -216389,604810 -279053,919840 -62663,315030 -94051,635330 -94051,956531 v 8756571 4378544 8756572 c 0,252371 -24661,503851 -73897,751375 -49236,247524 -123046,489792 -219625,722953 -96579,233162 -215840,456270 -356051,666110 -140209,209839 -300585,405489 -479040,583943 -178455,178455 -374103,338830 -583944,479041 -209841,140211 -432947,259471 -666109,356050 -233163,96579 -474914,169872 -722436,219108 -247524,49235 -499520,73898 -751893,73898 -252372,0 -503851,-24663 -751375,-73898 -247524,-49236 -489790,-122529 -722953,-219108 -233162,-96579 -456270,-215839 -666109,-356050 -209841,-140211 -405489,-300586 -583944,-479041 -178455,-178454 -338830,-374104 -479041,-583943 -140209,-209840 -259471,-432948 -356050,-666110 -96579,-233161 -169872,-475429 -219108,-722953 -49236,-247524 -74414,-499004 -74414,-751375 v -8756572 -4378544 -8756571 c -119,-321126 -31818,-641596 -94568,-956531 -62751,-314935 -156081,-622677 -279053,-919324 -122972,-296645 -274733,-580528 -453202,-847493 -178470,-266965 -382670,-516079 -609782,-743107 -227112,-227028 -476078,-430895.2 -743107,-609265.4 -267031,-178370.2 -550801,-330340.7 -847494,-453202.3 -296691,-122861.6 -604884,-216419.1 -919840,-279052.7 -314958,-62633.8 -635406,-94051.1 -956531,-94051.1 -321126,0 -641572,31417.3 -956531,94051.1 -314956,62633.6 -622632,156191.1 -919323,279052.7 -296693,122861.6 -580980,274832.1 -848011,453202.3 -267029,178370.2 -515478,382237.4 -742590,609265.4 -227111.6,227028 -431829.5,476142 -610298.7,743107 -178469.2,266965 -330230.7,550848 -453202.3,847493 -122971.6,296647 -216302.4,604389 -279052.7,919324 -62750.5,314935 -94449,635405 -94567.9,956531 v 8756571 13134599 517 c -84.9,252167 -25174.5,504060 -74414.1,751375 -49272.9,247483 -122506.2,489319 -219108,722437 -96601.8,233115 -215831.5,456314 -356050.6,666109 -140219.3,209796 -300591.2,405013 -479040.6,583427 -178449.4,178411 -374120,338863 -583943.7,479040 -209823.6,140177 -432972.4,259497 -666109.2,356051 -233136.6,96555 -474943.7,169885 -722436.5,219108 -247492.6,49223 -499551.9,74414 -751892.1,74414 -252340,0 -503882.5,-25191 -751375.3,-74414 -247492.6,-49223 -489816.5,-122553 -722953.3,-219108 -233136.6,-96554 -456285.4,-215874 -666109.2,-356051 -209823.7,-140177 -404977.5,-300629 -583426.9,-479040 -178449.3,-178414 -339338,-373631 -479557.3,-583427 -140219.1,-209795 -259448.8,-432994 -356050.6,-666109 -96601.8,-233118 -169834.9,-474954 -219108.1,-722437 -49239.4,-247315 -74329.3,-499208 -74414,-751375 V 22480798 13724227 c -0.2,-603307 43445.1,-1205883 129707.8,-1802991 86262.8,-597106 215269.9,-1187145 386023,-1765784 170753,-578635.7 382852.3,-1144126.2 634586.5,-1692402.7 251734.5,-548276.8 542688.6,-1077750.2 870231.2,-1584399.4 327542.4,-506649.2 690652.4,-989229.5 1087272.1,-1443839.5 396619.7,-454610.1 825579.4,-880078.6 1283125.8,-1273307.3 457546.3,-393228.7 942520.5,-753170.4 1451591,-1076936.9 509070.5,-323766.6 1040984.2,-610694.7 1591117.3,-858345.5 550133.2,-247651.1 1117163.5,-455738 1697054.4,-622184.3 579890,-166446.1 1171152,-290766.1 1768884,-372587 597731,-81820.9 1200737,-120757.8 1804024,-116272 603290,4485.8 1205509,52443.4 1801957,143143.7 596450,90700.2 1185333,223891.1 1762683,398942.1 577353,175050.9 1141363,391184.8 1687753,646988.9 546389,255804.1 1073997,550815.9 1578198,882116.7 504198,331300.8 983923,698135.2 1435571,1098124.2 a 525390,525390 0 0 0 347783,-21187.4 525390,525390 0 0 0 350883,19637.1 c 452816,-405464.1 933967,-778281.2 1440222,-1114660.7 506252,-336379.4 1036195,-635719.9 1585433,-896069.3 549237,-260349.3 1116690,-480964.5 1697570,-659908 580883,-178943.5 1174038,-315951.2 1774569,-409794.1 600532,-93842.9 1206578,-144090.6 1814360,-150895.2 z m 87565709,0 c 607780,-6804.5 1215000,30213.2 1817460,110587.6 602480,80374.2 1198610,204110 1783360,370003.2 584740,165893.2 1156590,373163.7 1711520,621150.7 554930,247987.1 1091420,535968.9 1605070,860929.4 513660,324960.5 1003250,686363.7 1465030,1081587.7 461780,395224.1 894640,823214.7 1295010,1280542 400370,457327.2 767430,942637 1098120,1452624.5 330690,509987.6 624310,1043133.7 878500,1595251.4 254180,552117.9 468360,1121958.1 640790,1704805.1 172430,582849 302530,1177160 389640,1778703 87090,601374 130720,1208264 130740,1815910 l -64080,8753471 a 525390,525390 0 0 0 1040,2584 525390,525390 0 0 0 -1040,1033 v 4378544 c 0,321202 31910,641501 94570,956531 62670,315029 156130,623090 279050,919841 122920,296750 274240,580941 452690,848010 178450,267070 382660,515466 609780,742590 227120,227123 476040,431849 743110,610299 267060,178450 551260,329766 848010,452685 296760,122918 604810,216390 919840,279053 315030,62663 635320,94568 956530,94568 321200,0 642020,-31905 957050,-94568 315030,-62663 623080,-156135 919840,-279053 296750,-122919 580420,-274235 847490,-452685 267060,-178450 515990,-383176 743110,-610299 227120,-227124 431330,-475520 609780,-742590 178450,-267069 330280,-551260 453200,-848010 122920,-296751 216390,-604812 279060,-919841 62660,-315030 94560,-635329 94560,-956531 v -4378544 -8756571 c 0,-567322 37900,-1133854 114210,-1696021 76320,-562164 190850,-1118741 342100,-1665531 151240,-546791.1 338820,-1082559.7 562240,-1604036.5 223420,-521476.9 482050,-1027435.3 773590,-1514119.5 583730,-974478.7 1296340,-1865336.3 2118740,-2648933.9 822390,-783597.6 1747140,-1452507.8 2748670,-1988509.1 500190,-267695.2 1017600,-501720.5 1549260,-699698.9 531640,-197978.4 1075890,-359545.3 1629350,-484208.2 553460,-124662.7 1114810,-211884.7 1680000,-260965.9 565200,-49081.5 1132980,-59948.6 1699640,-32556.2 566670,27392.4 1130960,93002.3 1688790,196370.4 557830,103368.2 1108080,244214.8 1646930,421679.7 1078920,355335 2104780,855076.5 3049940,1485180.7 h 520 c 209500,140007.1 404690,300388.6 582910,478523.7 178390,178307.1 338840,373243.6 479040,582910.2 140200,209666.6 259420,432614.2 356050,665592.4 96630,232978.4 170270,475089.1 219620,722436.6 49350,247347.3 74240,499152.9 74420,751375.3 180,252222.2 -24380,503442.7 -73380,750858.5 -49010,247416.1 -122300,489840.7 -218600,722953.3 -96310,233112.9 -215100,456247.4 -355010,666109.2 -139910,209861.8 -300390,405388.3 -478530,583943.7 -178140,178555.3 -373370,339162 -582910,479557.3 -209540,140395.4 -432180,259721.2 -665070,356567.4 -232890,96845.8 -474620,170561.8 -721920,220141.8 -6810,1364 -13860,739 -20670,2067 -240740,46924 -485420,72981 -730710,73380 -246840,402 -492990,-24591 -735350,-71313 484310,93689 981840,91970 1466060,-2067 -486090,94386 -985660,96341 -1471750,1550 -3400,-662 -6930,-362 -10330,-1033 -2470,-487 -4770,-1576 -7240,-2067 -492510,-98475 -961080,-290659.5 -1379240,-568958 416730,277352.2 883930,468614 1374590,567407 -243210,-48763 -481190,-119951 -710550,-214456.9 -232280,-95705.1 -454780,-213960.9 -664040,-352950.1 -650,-429.9 -1420,-603.1 -2070,-1033.5 -190,-128.3 -320,-388.5 -520,-516.8 a 525390,525390 0 0 0 -1030,0 c -367180,-244615.2 -765360,-439209.6 -1184420,-577225.7 -419580,-138185.7 -856360,-218965.7 -1297600,-240295.4 -79280,-3832.7 -158440,-5702.2 -237710,-5684.4 -361890,81.2 -722900,40261.5 -1076420,119889.3 -430960,97070.2 -846620,251992.8 -1236100,460437 -389480,208444.2 -749370,468348.2 -1069190,773079.5 -319820,304732 -596710,651465 -823720,1030428 -227000,378964 -402090,787079 -519860,1212846 -117770,425764 -177250,865144 -177250,1306897 v 8756571 4378544 c 0,825946 -81230,1649722 -242370,2459798 -161130,810077 -401190,1602157 -717260,2365231 -316080,763074 -706440,1493480 -1165310,2180228 -458870,686750 -984350,1326962 -1568380,1910995 -584040,584031 -1223730,1108992 -1910480,1567863 -686730,458870 -1417140,849229 -2180220,1165303 -763070,316076 -1555150,556135 -2365230,717269 -810080,161134 -1634380,242363 -2460320,242363 -825950,0 -1649720,-81229 -2459800,-242363 -810080,-161134 -1602160,-401193 -2365230,-717269 -763080,-316074 -1493480,-706433 -2180230,-1165303 -686750,-458871 -1326960,-983832 -1910990,-1567863 -584040,-584033 -1108990,-1224245 -1567860,-1910995 -458870,-686748 -849240,-1417154 -1165310,-2180228 -316080,-763074 -556650,-1555154 -717780,-2365231 -161140,-810076 -241850,-1633852 -241850,-2459798 v -4378544 -8756571 a 525390,525390 0 0 0 0,-517 c -270,-321032 -32230,-641196 -95080,-956014 -62860,-314818 -156540,-622806 -279570,-919324 -123040,-296516 -274730,-580142 -453200,-846976 -178500,-266836 -382690,-515164 -609790,-742074 -227100,-226909 -476110,-430992.8 -743100,-609265.1 -266980,-178272.3 -550880,-329893.9 -847500,-452685.5 -296620,-122791.8 -604450,-216455.3 -919320,-279052.8 -314870,-62597.3 -635500,-94051.1 -956530,-94051.1 -321030,0 -641150,31453.8 -956020,94051.1 -314870,62597.5 -622700,156261 -919320,279052.8 -296620,122791.6 -580510,274413.2 -847490,452685.5 -266990,178272.3 -516010,382356.1 -743110,609265.1 -227090,226910 -431290,475238 -609780,742074 -178500,266834 -330160,550460 -453200,846976 -123030,296518 -216720,604506 -279570,919324 -62860,314818 -94820,634982 -95090,956014 a 525390,525390 0 0 0 0,517 v 8756571 4378544 8756572 c 0,252371 -24670,503850 -73900,751375 -49240,247524 -122520,489793 -219100,722953 -96580,233163 -215840,456269 -356050,666110 -140210,209839 -300600,405488 -479050,583943 -178440,178454 -374100,338830 -583940,479041 -209840,140211 -432950,259471 -666110,356050 -233160,96579 -475430,169873 -722950,219108 -247530,49236 -499010,73898 -751380,73898 -252380,0 -504360,-24662 -751890,-73898 -247520,-49235 -489790,-122529 -722950,-219108 -233160,-96579 -456270,-215839 -666110,-356050 -209840,-140211 -405480,-300587 -583940,-479041 -178450,-178455 -338840,-374104 -479050,-583943 -140210,-209841 -259470,-432947 -356050,-666110 -96580,-233160 -169860,-475429 -219100,-722953 -49230,-247525 -73900,-499004 -73900,-751375 v -8756572 -4378544 -8756571 a 525390,525390 0 0 0 0,-517 c -340,-320983 -32170,-641258 -95090,-956014 -62910,-314756 -156500,-622356 -279570,-918807 -123070,-296450 -275210,-580209 -453710,-846977 -178510,-266766 -382700,-515226 -609790,-742073 -227090,-226848 -476150,-431044.5 -743100,-609265.3 -266960,-178220.8 -550400,-329930.5 -846980,-452685.6 -296580,-122754.9 -604500,-215957.7 -919320,-278535.9 -314830,-62578.4 -635040,-94051.1 -956020,-94051.1 -320980,0 -641190,31472.7 -956010,94051.1 -314830,62578.2 -622744,155781 -919326,278535.9 -296580,122755.1 -580534,274464.8 -847493,452685.6 -266959,178220.8 -516017,382417.3 -743107,609265.3 -227090,226847 -431275,475307 -609782,742073 -178507,266768 -330132,550527 -453202,846977 -123072,296451 -217172,604051 -280087,918807 -62915,314756 -94741,635031 -95084,956014 a 525390,525390 0 0 0 0,517 v 8756571 4378028 516 c -262,825628 -81612,1649556 -242880,2459282 -161300,809894 -401608,1601839 -717785,2364713 -316178,762875 -706394,1492646 -1165304,2179195 -458908,686550 -984370,1326630 -1568379,1910478 -584011,583847 -1223803,1108628 -1910478,1567346 -686675,458720 -1416750,849337 -2179712,1165304 -762962,315966 -1555292,556191 -2365230,717269 -809941,161076 -1633482,241845 -2459282,241845 -825801,0 -1649859,-80769 -2459798,-241845 -809938,-161078 -1602268,-401303 -2365230,-717269 -762962,-315967 -1493037,-706584 -2179712,-1165304 -686675,-458718 -1326467,-983499 -1910478,-1567346 -584009,-583848 -1108953,-1223928 -1567863,-1910478 -458908,-686549 -849642,-1416320 -1165820,-2179195 -316179,-762874 -556484,-1554819 -717786,-2364713 -161267,-809726 -242617,-1633654 -242879,-2459282 v -516 c 34,-252201 24695,-504021 73897,-751376 49236,-247524 122531,-489790 219108,-722953 96579,-233162 215840,-456269 356051,-666109 140211,-209841 301104,-404973 479557,-583427 178455,-178455 374103,-339348 583944,-479557 209841,-140211 432947,-259472 666109,-356051 233163,-96579 474913,-169872 722437,-219108 247524,-49235 499518,-73897 751892,-73897 252373,0 503851,24662 751375,73897 247524,49236 489792,122529 722953,219108 233162,96579 456269,215840 666110,356051 209839,140209 405490,301102 583943,479557 178455,178454 338830,373586 479041,583427 140211,209840 259473,432947 356050,666109 96579,233163 169873,475429 219109,722953 49236,247524 74414,499521 74414,751892 0,321201 31388,641501 94051,956531 62664,315030 156136,623090 279052,919841 122918,296749 274753,580941 453203,848010 178450,267069 382659,515466 609782,742590 227122,227124 476038,431849 743107,610299 267068,178450 550743,329767 847493,452685 296751,122919 604811,216390 919841,279053 315027,62663 635847,94568 957047,94568 321201,0 641502,-31905 956531,-94568 315030,-62663 623090,-156134 919841,-279053 296750,-122918 580940,-274235 848010,-452685 267067,-178450 515983,-383175 743107,-610299 227123,-227124 431332,-475521 609782,-742590 178450,-267069 330284,-551261 453202,-848010 122918,-296751 216389,-604811 279053,-919841 62663,-315030 94051,-635330 94051,-956531 v -4378544 -8756571 c 0,-603307 43445,-1205884 129708,-1802991 86263,-597106 215270,-1187145 386023,-1765784 170754,-578635.6 382336,-1144126.3 634069,-1692402.7 251734,-548276.6 542689,-1077750.4 870232,-1584399.4 327541,-506649 691168,-989229.7 1087789,-1443839.5 396618,-454610 825062,-880078.8 1282609,-1273307.3 457545,-393228.6 943037,-753170.4 1452107,-1076936.9 509071,-323766.5 1040467,-610694.7 1590601,-858345.5 550132,-247651 1117680,-455738 1697571,-622184.3 579890,-166446.1 1170636,-290766.1 1768367,-372587 597728,-81820.9 1200738,-120757.7 1804028,-116272 603290,4485.7 1205500,52443.6 1801950,143143.7 596450,90700.1 1185850,223891.3 1763200,398942.1 577360,175050.7 1141370,391185 1687760,646988.9 546390,255803.9 1073480,550816.1 1577680,882116.7 504210,331300.5 983920,698135.4 1435570,1098124.2 a 525390,525390 0 0 0 41340,-2583.8 525390,525390 0 0 0 657320,1033.5 c 452820,-405463.6 934490,-778281.7 1440740,-1114660.7 506260,-336378.9 1036200,-635720.3 1585440,-896069.3 549240,-260348.8 1116170,-480965 1697050,-659908 580880,-178943.1 1174040,-315951.5 1774570,-409794.1 600530,-93842.6 1207110,-144090.8 1814870,-150895.2 z M 72231766,24134961 c -357773,357772 -641978,782077 -835608,1249536 -193554,467301 -292938,968530 -293005,1474329 67,-505798 99967,-1007029 293522,-1474329 193630,-467458 477319,-891765 835091,-1249536 z" />
  <metadata
     id="metadata13811">
    <rdf:RDF>
      <cc:Work
         rdf:about="">
        <dc:title>SVG Picture created as Untitled-F_Silkscreen.svg date 2023/06/29 23:35:55 </dc:title>
      </cc:Work>
    </rdf:RDF>
  </metadata>
</svg>
