<?xml version="1.0" encoding="UTF-8" standalone="no"?>
<svg
   version="1.1"
   width="16.352512cm"
   height="4.0519361cm"
   viewBox="0 0 1.6352512e+08 40519363"
   id="svg172"
   sodipodi:docname="murmur_logo.svg"
   inkscape:version="1.2.2 (b0a8486, 2022-12-01)"
   xmlns:inkscape="http://www.inkscape.org/namespaces/inkscape"
   xmlns:sodipodi="http://sodipodi.sourceforge.net/DTD/sodipodi-0.dtd"
   xmlns="http://www.w3.org/2000/svg"
   xmlns:svg="http://www.w3.org/2000/svg">
  <defs
     id="defs176">
    <linearGradient
       id="linearGradient2089"
       inkscape:swatch="solid">
      <stop
         style="stop-color:#000000;stop-opacity:1;"
         offset="0"
         id="stop2087" />
    </linearGradient>
  </defs>
  <sodipodi:namedview
     id="namedview174"
     pagecolor="#ffffff"
     bordercolor="#000000"
     borderopacity="0.25"
     inkscape:showpageshadow="2"
     inkscape:pageopacity="0.0"
     inkscape:pagecheckerboard="0"
     inkscape:deskcolor="#d1d1d1"
     inkscape:document-units="cm"
     showgrid="false"
     inkscape:zoom="0.9215496"
     inkscape:cx="341.81557"
     inkscape:cy="195.86575"
     inkscape:window-width="1547"
     inkscape:window-height="981"
     inkscape:window-x="0"
     inkscape:window-y="25"
     inkscape:window-maximized="0"
     inkscape:current-layer="svg172" />
  <title
     id="title2">SVG Picture created as Untitled-F_Silkscreen.svg date 2023/06/29 23:35:55 </title>
  <desc
     id="desc4">Picture generated by PCBNEW </desc>
  <path
     style="color:#000000;fill:none;fill-opacity:1;fill-rule:evenodd;stroke:#ffffff;stroke-width:1050780;stroke-linecap:round;stroke-linejoin:round;stroke-opacity:0.99574471;-inkscape-stroke:none"
     d="m 123117000,22480879 v 4378273"
     id="path702" />
  <path
     style="color:#000000;fill:none;fill-opacity:1;fill-rule:evenodd;stroke:#ffffff;stroke-width:8.75652;stroke-linecap:round;stroke-linejoin:round;stroke-opacity:0.99574471;-inkscape-stroke:none"
     d="m 123117000,21955486 a 525392.6,525392.6 0 0 0 -525390,525393 v 4378273 a 525392.6,525392.6 0 0 0 525390,525392 525392.6,525392.6 0 0 0 525390,-525392 v -4378273 a 525392.6,525392.6 0 0 0 -525390,-525393 z"
     id="path704" />
  <path
     style="color:#000000;fill:none;fill-opacity:1;fill-rule:evenodd;stroke:#ffffff;stroke-width:1050780;stroke-linecap:round;stroke-linejoin:round;stroke-opacity:0.99574471;-inkscape-stroke:none"
     d="M 105603910,26859152 V 22480879"
     id="path696" />
  <path
     style="color:#000000;fill:none;fill-opacity:1;fill-rule:evenodd;stroke:#ffffff;stroke-width:8.75652;stroke-linecap:round;stroke-linejoin:round;stroke-opacity:0.99574471;-inkscape-stroke:none"
     d="m 105603910,21955486 a 525392.6,525392.6 0 0 0 -525390,525393 v 4378273 a 525392.6,525392.6 0 0 0 525390,525392 525392.6,525392.6 0 0 0 525390,-525392 v -4378273 a 525392.6,525392.6 0 0 0 -525390,-525393 z"
     id="path698" />
  <path
     style="color:#000000;fill:none;fill-opacity:1;fill-rule:evenodd;stroke:#ffffff;stroke-width:1050780;stroke-linecap:round;stroke-linejoin:round;stroke-opacity:0.99574471;-inkscape-stroke:none"
     d="M 105603910,22480879 V 13724336"
     id="path690" />
  <path
     style="color:#000000;fill:none;fill-opacity:1;fill-rule:evenodd;stroke:#ffffff;stroke-width:8.75652;stroke-linecap:round;stroke-linejoin:round;stroke-opacity:0.99574471;-inkscape-stroke:none"
     d="m 105603910,13198943 a 525392.6,525392.6 0 0 0 -525390,525393 v 8756543 a 525392.6,525392.6 0 0 0 525390,525393 525392.6,525392.6 0 0 0 525390,-525393 v -8756543 a 525392.6,525392.6 0 0 0 -525390,-525393 z"
     id="path692" />
  <path
     style="color:#000000;fill:none;fill-opacity:1;fill-rule:evenodd;stroke:#ffffff;stroke-width:1050780;stroke-linecap:round;stroke-linejoin:round;stroke-opacity:0.99574471;-inkscape-stroke:none"
     d="M 109933970,3891307 A 13134815,13134815 0 0 0 88090829,13724336"
     id="path684" />
  <path
     style="color:#000000;fill:none;fill-opacity:1;fill-rule:evenodd;stroke:#ffffff;stroke-width:8.75652;stroke-linecap:round;stroke-linejoin:round;stroke-opacity:0.99574471;-inkscape-stroke:none"
     d="m 101220110,64128.572 c -617040,245.18 -1234156,42302.838 -1847079,126208.018 -1296759,177503.92 -2561271,540462.68 -3754773,1077729.11 -1193488,537266.5 -2303573,1243280.2 -3296208,2096377.8 -992632,853088.9 -1857505,1844425.6 -2568101,2943582.2 -710582,1099156 -1259524,2294739.4 -1629967,3550069.5 -370438,1255328.8 -558547,2557391.8 -558547,3866240.8 a 525392.6,525392.6 0 0 0 525394,525392 525392.6,525392.6 0 0 0 525392,-525392 c 0,-1208167 173634,-2410072 515583,-3568843 341944,-1158762 848661,-2262375.6 1504587,-3276987.6 655934,-1014602.8 1454279,-1929679.3 2370555,-2717146.5 916276,-787476 1940963,-1439181.7 3042652,-1935116.9 1101687,-495944.5 2268937,-830978.7 3465947,-994831.2 1196995,-163852.4 2411345,-154824.4 3605785,26812.6 1194430,181628.2 2356570,533991.6 3450760,1046258.2 1094190,512266.4 2109080,1179138.4 3013540,1980143.1 a 525392.6,525392.6 0 0 0 741660,-44982.2 525392.6,525392.6 0 0 0 -44980,-741653.1 C 109302470,2630224.8 108203000,1907783.8 107017630,1352829.1 105832260,797865.57 104573280,416150.36 103279300,219382.08 102596930,115608.3 101908560,63848.332 101220110,64128.572 Z"
     id="path686" />
  <path
     style="color:#000000;fill:none;fill-opacity:1;fill-rule:evenodd;stroke:#ffffff;stroke-width:1050780;stroke-linecap:round;stroke-linejoin:round;stroke-opacity:0.99574471;-inkscape-stroke:none"
     d="m 149386630,22480879 v 4378273"
     id="path678" />
  <path
     style="color:#000000;fill:none;fill-opacity:1;fill-rule:evenodd;stroke:#ffffff;stroke-width:8.75652;stroke-linecap:round;stroke-linejoin:round;stroke-opacity:0.99574471;-inkscape-stroke:none"
     d="m 149386630,21955486 a 525392.6,525392.6 0 0 0 -525400,525393 v 4378273 a 525392.6,525392.6 0 0 0 525400,525392 525392.6,525392.6 0 0 0 525390,-525392 v -4378273 a 525392.6,525392.6 0 0 0 -525390,-525393 z"
     id="path680" />
  <path
     style="color:#000000;fill:none;fill-opacity:1;fill-rule:evenodd;stroke:#ffffff;stroke-width:1050780;stroke-linecap:round;stroke-linejoin:round;stroke-opacity:0.99574471;-inkscape-stroke:none"
     d="M 88090829,22480879 V 13724336"
     id="path672" />
  <path
     style="color:#000000;fill:none;fill-opacity:1;fill-rule:evenodd;stroke:#ffffff;stroke-width:8.75652;stroke-linecap:round;stroke-linejoin:round;stroke-opacity:0.99574471;-inkscape-stroke:none"
     d="m 88090829,13198943 a 525392.6,525392.6 0 0 0 -525394,525393 v 8756543 a 525392.6,525392.6 0 0 0 525394,525393 525392.6,525392.6 0 0 0 525392,-525393 v -8756543 a 525392.6,525392.6 0 0 0 -525392,-525393 z"
     id="path674" />
  <path
     style="color:#000000;fill:none;fill-opacity:1;fill-rule:evenodd;stroke:#ffffff;stroke-width:1050780;stroke-linecap:round;stroke-linejoin:round;stroke-opacity:0.99574471;-inkscape-stroke:none"
     d="M 73330537,2693867.3 A 13134815,13134815 0 0 0 53064658,13724336"
     id="path666" />
  <path
     style="color:#000000;fill:none;fill-opacity:1;fill-rule:evenodd;stroke:#ffffff;stroke-width:8.75652;stroke-linecap:round;stroke-linejoin:round;stroke-opacity:0.99574471;-inkscape-stroke:none"
     d="m 66199374,64128.572 c -1049473,8.75 -2096044,120962.888 -3118905,360848.368 -1190240,279132.33 -2337638,716793.16 -3411426,1301239.96 -1073791,584455.5 -2064259,1310408 -2944877,2158417.8 -880620,848001.3 -1643421,1810388.8 -2267955,2861366.8 -624535,1050977.7 -1105163,2181044.9 -1428997,3359911.5 -323838,1178876 -487951,2395887 -487951,3618423 a 525392.6,525392.6 0 0 0 525395,525392 525392.6,525392.6 0 0 0 525389,-525392 c 0,-1128500 151488,-2251894 450419,-3340078 298922,-1088193.6 742582,-2131325.4 1319068,-3101463 576498,-970137.3 1280620,-1858488.6 2093497,-2641262.4 812878,-782773.4 1727162,-1452885.7 2718356,-1992376.2 991189,-539499.4 2050319,-943491.3 3149000,-1201152.5 1098694,-257670 2227002,-366680.2 3354694,-324114.7 1127694,42565.6 2244576,236321.6 3320717,576075.5 1076136,339762.5 2101793,822440.8 3049493,1435118.7 a 525392.6,525392.6 0 0 0 726463,-155971.6 525392.6,525392.6 0 0 0 -155973,-726460.3 C 72589102,1588914.2 71477965,1066008.5 70312158,697935.87 69146346,329863.39 67936382,119960.29 66714715,73848.312 c -171794,-6479.82 -343609,-9719.74 -515341,-9719.74 z"
     id="path668" />
  <path
     style="color:#000000;fill:none;fill-opacity:1;fill-rule:evenodd;stroke:#ffffff;stroke-width:1050780;stroke-linecap:round;stroke-linejoin:round;stroke-opacity:0.99574471;-inkscape-stroke:none"
     d="M 525396.98,22480879 V 35615692"
     id="path660" />
  <path
     style="color:#000000;fill:none;fill-opacity:1;fill-rule:evenodd;stroke:#ffffff;stroke-width:8.75652;stroke-linecap:round;stroke-linejoin:round;stroke-opacity:0.99574471;-inkscape-stroke:none"
     d="M 525396.98,21955486 A 525392.6,525392.6 0 0 0 4.378262,22480879 V 35615692 A 525392.6,525392.6 0 0 0 525396.98,36141086 525392.6,525392.6 0 0 0 1050789.6,35615692 V 22480879 a 525392.6,525392.6 0 0 0 -525392.62,-525393 z"
     id="path662" />
  <path
     style="color:#000000;fill:none;fill-opacity:1;fill-rule:evenodd;stroke:#ffffff;stroke-width:1050780;stroke-linecap:round;stroke-linejoin:round;stroke-opacity:0.99574471;-inkscape-stroke:none"
     d="m 35551569,13724336 v 8756543"
     id="path654" />
  <path
     style="color:#000000;fill:none;fill-opacity:1;fill-rule:evenodd;stroke:#ffffff;stroke-width:8.75652;stroke-linecap:round;stroke-linejoin:round;stroke-opacity:0.99574471;-inkscape-stroke:none"
     d="m 35551569,13198943 a 525392.6,525392.6 0 0 0 -525392,525393 v 8756543 a 525392.6,525392.6 0 0 0 525392,525393 525392.6,525392.6 0 0 0 525392,-525393 v -8756543 a 525392.6,525392.6 0 0 0 -525392,-525393 z"
     id="path656" />
  <path
     style="color:#000000;fill:none;fill-opacity:1;fill-rule:evenodd;stroke:#ffffff;stroke-width:1050780;stroke-linecap:round;stroke-linejoin:round;stroke-opacity:0.99574471;-inkscape-stroke:none"
     d="M 61821201,22480879 V 13724336"
     id="path648" />
  <path
     style="color:#000000;fill:none;fill-opacity:1;fill-rule:evenodd;stroke:#ffffff;stroke-width:8.75652;stroke-linecap:round;stroke-linejoin:round;stroke-opacity:0.99574471;-inkscape-stroke:none"
     d="m 61821201,13198943 a 525392.6,525392.6 0 0 0 -525395,525393 v 8756543 a 525392.6,525392.6 0 0 0 525395,525393 525392.6,525392.6 0 0 0 525389,-525393 v -8756543 a 525392.6,525392.6 0 0 0 -525389,-525393 z"
     id="path650" />
  <path
     style="color:#000000;fill:none;fill-opacity:1;fill-rule:evenodd;stroke:#ffffff;stroke-width:1050780;stroke-linecap:round;stroke-linejoin:round;stroke-opacity:0.99574471;-inkscape-stroke:none"
     d="M 9281940.2,35615692 V 22480879"
     id="path642" />
  <path
     style="color:#000000;fill:none;fill-opacity:1;fill-rule:evenodd;stroke:#ffffff;stroke-width:8.75652;stroke-linecap:round;stroke-linejoin:round;stroke-opacity:0.99574471;-inkscape-stroke:none"
     d="m 9281940.2,21955486 a 525392.6,525392.6 0 0 0 -525392.7,525393 v 13134813 a 525392.6,525392.6 0 0 0 525392.7,525394 525392.6,525392.6 0 0 0 525391.9,-525394 V 22480879 a 525392.6,525392.6 0 0 0 -525391.9,-525393 z"
     id="path644" />
  <path
     style="color:#000000;fill:none;fill-opacity:1;fill-rule:evenodd;stroke:#ffffff;stroke-width:1050780;stroke-linecap:round;stroke-linejoin:round;stroke-opacity:0.99574471;-inkscape-stroke:none"
     d="M 114360460,35615692 V 26859152"
     id="path636" />
  <path
     style="color:#000000;fill:none;fill-opacity:1;fill-rule:evenodd;stroke:#ffffff;stroke-width:8.75652;stroke-linecap:round;stroke-linejoin:round;stroke-opacity:0.99574471;-inkscape-stroke:none"
     d="m 114360460,26333757 a 525392.6,525392.6 0 0 0 -525400,525395 v 8756540 a 525392.6,525392.6 0 0 0 525400,525394 525392.6,525392.6 0 0 0 525390,-525394 v -8756540 a 525392.6,525392.6 0 0 0 -525390,-525395 z"
     id="path638" />
  <path
     style="color:#000000;fill:none;fill-opacity:1;fill-rule:evenodd;stroke:#ffffff;stroke-width:1050780;stroke-linecap:round;stroke-linejoin:round;stroke-opacity:0.99574471;-inkscape-stroke:none"
     d="m 79334286,26859152 a 4378271.5,4378271.5 0 0 0 8756543,0"
     id="path630" />
  <path
     style="color:#000000;fill:none;fill-opacity:1;fill-rule:evenodd;stroke:#ffffff;stroke-width:8.75652;stroke-linecap:round;stroke-linejoin:round;stroke-opacity:0.99574471;-inkscape-stroke:none"
     d="m 79334286,26333757 a 525392.6,525392.6 0 0 0 -525394,525395 c 0,643945 126837,1281615 373264,1876552 246438,594928 607646,1135521 1062984,1590863 455342,455341 995937,816546 1590863,1062973 594937,246437 1232607,373275 1876555,373275 643948,0 1281615,-126838 1876552,-373275 594931,-246427 1135521,-607632 1590863,-1062973 455338,-455342 816549,-995935 1062984,-1590863 246426,-594937 373264,-1232607 373264,-1876552 a 525392.6,525392.6 0 0 0 -525392,-525395 525392.6,525392.6 0 0 0 -525394,525395 c 0,505970 -99659,1006974 -293283,1474434 -193621,467458 -477421,892188 -835197,1249961 -357778,357775 -782505,641575 -1249963,835199 -467457,193626 -968464,293283 -1474434,293283 -505970,0 -1006977,-99657 -1474438,-293283 -467457,-193624 -892184,-477424 -1249960,-835199 -357775,-357773 -641572,-782503 -835199,-1249961 -193624,-467460 -293283,-968464 -293283,-1474434 a 525392.6,525392.6 0 0 0 -525392,-525395 z"
     id="path632" />
  <path
     style="color:#000000;fill:none;fill-opacity:1;fill-rule:evenodd;stroke:#ffffff;stroke-width:1050780;stroke-linecap:round;stroke-linejoin:round;stroke-opacity:0.99574471;-inkscape-stroke:none"
     d="M 96847372,22480879 V 13724336"
     id="path624" />
  <path
     style="color:#000000;fill:none;fill-opacity:1;fill-rule:evenodd;stroke:#ffffff;stroke-width:8.75652;stroke-linecap:round;stroke-linejoin:round;stroke-opacity:0.99574471;-inkscape-stroke:none"
     d="m 96847372,13198943 a 525392.6,525392.6 0 0 0 -525394,525393 v 8756543 a 525392.6,525392.6 0 0 0 525394,525393 525392.6,525392.6 0 0 0 525392,-525393 v -8756543 a 525392.6,525392.6 0 0 0 -525392,-525393 z"
     id="path626" />
  <path
     style="color:#000000;fill:none;fill-opacity:1;fill-rule:evenodd;stroke:#ffffff;stroke-width:1050780;stroke-linecap:round;stroke-linejoin:round;stroke-opacity:0.99574471;-inkscape-stroke:none"
     d="m 105603910,13724336 a 4378271.5,4378271.5 0 0 0 -8756538,0"
     id="path618" />
  <path
     style="color:#000000;fill:none;fill-opacity:1;fill-rule:evenodd;stroke:#ffffff;stroke-width:8.75652;stroke-linecap:round;stroke-linejoin:round;stroke-opacity:0.99574471;-inkscape-stroke:none"
     d="m 101225640,8820671.6 c -643950,0 -1281616,126838.7 -1876551,373274.2 -594926,246426.4 -1135521,607633.4 -1590863,1062974.2 -455338,455340 -816544,995934 -1062981,1590862 -246430,594937 -373267,1232606 -373267,1876554 a 525392.6,525392.6 0 0 0 525394,525392 525392.6,525392.6 0 0 0 525392,-525392 c 0,-505971 99659,-1006976 293283,-1474436 193626,-467459 477427,-892186 835199,-1249961 357775,-357775 782503,-641575 1249958,-835199 467456,-193624.8 968466,-293282.8 1474436,-293282.8 505970,0 1006980,99658 1474430,293282.8 467470,193624 892190,477424 1249970,835199 357770,357775 641570,782502 835200,1249961 193620,467460 293280,968465 293280,1474436 a 525392.6,525392.6 0 0 0 525390,525392 525392.6,525392.6 0 0 0 525390,-525392 c 0,-643948 -126830,-1281617 -373260,-1876554 -246440,-594928 -607650,-1135522 -1062990,-1590862 -455340,-455340.8 -995930,-816547.8 -1590860,-1062974.2 -594930,-246435.5 -1232600,-373274.2 -1876550,-373274.2 z"
     id="path620" />
  <path
     style="color:#000000;fill:none;fill-opacity:1;fill-rule:evenodd;stroke:#ffffff;stroke-width:1050780;stroke-linecap:round;stroke-linejoin:round;stroke-opacity:0.99574471;-inkscape-stroke:none"
     d="m 123117000,26859152 a 13134815,13134815 0 0 0 26269630,0"
     id="path612" />
  <path
     style="color:#000000;fill:none;fill-opacity:1;fill-rule:evenodd;stroke:#ffffff;stroke-width:8.75652;stroke-linecap:round;stroke-linejoin:round;stroke-opacity:0.99574471;-inkscape-stroke:none"
     d="m 123117000,26333757 a 525392.6,525392.6 0 0 0 -525390,525395 c 0,894778 87910,1787392 262470,2664974 174560,877582 434930,1735896 777350,2562559 342410,826670 765220,1617691 1262330,2361673 497120,743974 1066130,1437319 1698820,2070013 632710,632704 1326050,1201715 2070020,1698822 743990,497120 1535010,919926 2361680,1262342 826660,342417 1684980,602776 2562560,777336 877580,174561 1770190,262479 2664970,262479 894780,0 1787400,-87918 2664980,-262479 877580,-174560 1735890,-434919 2562550,-777336 826680,-342416 1617700,-765222 2361680,-1262342 743980,-497107 1437320,-1066118 2070020,-1698822 632700,-632694 1201710,-1326039 1698820,-2070013 497110,-743982 919920,-1535003 1262340,-2361673 342410,-826663 602780,-1684977 777340,-2562559 174560,-877582 262480,-1770196 262480,-2664974 a 525392.6,525392.6 0 0 0 -525390,-525395 525392.6,525392.6 0 0 0 -525400,525395 c 0,825942 -81150,1649897 -242280,2459975 -161140,810076 -401470,1602368 -717550,2365438 -316080,763080 -706360,1493256 -1165240,2180005 -458870,686749 -984100,1326756 -1568140,1910789 -584030,584027 -1224040,1109272 -1910790,1568141 -686750,458869 -1416920,849156 -2180000,1165233 -763070,316078 -1555360,556417 -2365440,717548 -810080,161138 -1634030,242282 -2459980,242282 -825940,0 -1649900,-81144 -2459970,-242282 -810080,-161131 -1602370,-401470 -2365440,-717548 -763080,-316077 -1493250,-706364 -2180010,-1165233 -686740,-458869 -1326750,-984114 -1910790,-1568141 -584030,-584033 -1109270,-1224040 -1568140,-1910789 -458870,-686749 -849150,-1416925 -1165240,-2180005 -316070,-763070 -556410,-1555362 -717540,-2365438 -161140,-810078 -242290,-1634033 -242290,-2459975 a 525392.6,525392.6 0 0 0 -525390,-525395 z"
     id="path614" />
  <path
     style="color:#000000;fill:none;fill-opacity:1;fill-rule:evenodd;stroke:#ffffff;stroke-width:1050780;stroke-linecap:round;stroke-linejoin:round;stroke-opacity:0.99574471;-inkscape-stroke:none"
     d="m 131873540,22480879 v 4378273"
     id="path606" />
  <path
     style="color:#000000;fill:none;fill-opacity:1;fill-rule:evenodd;stroke:#ffffff;stroke-width:8.75652;stroke-linecap:round;stroke-linejoin:round;stroke-opacity:0.99574471;-inkscape-stroke:none"
     d="m 131873540,21955486 a 525392.6,525392.6 0 0 0 -525390,525393 v 4378273 a 525392.6,525392.6 0 0 0 525390,525392 525392.6,525392.6 0 0 0 525390,-525392 v -4378273 a 525392.6,525392.6 0 0 0 -525390,-525393 z"
     id="path608" />
  <path
     style="color:#000000;fill:none;fill-opacity:1;fill-rule:evenodd;stroke:#ffffff;stroke-width:1050780;stroke-linecap:round;stroke-linejoin:round;stroke-opacity:0.99574471;-inkscape-stroke:none"
     d="m 140630090,22480879 v 4378273"
     id="path600" />
  <path
     style="color:#000000;fill:none;fill-opacity:1;fill-rule:evenodd;stroke:#ffffff;stroke-width:8.75652;stroke-linecap:round;stroke-linejoin:round;stroke-opacity:0.99574471;-inkscape-stroke:none"
     d="m 140630090,21955486 a 525392.6,525392.6 0 0 0 -525400,525393 v 4378273 a 525392.6,525392.6 0 0 0 525400,525392 525392.6,525392.6 0 0 0 525390,-525392 v -4378273 a 525392.6,525392.6 0 0 0 -525390,-525393 z"
     id="path602" />
  <path
     style="color:#000000;fill:none;fill-opacity:1;fill-rule:evenodd;stroke:#ffffff;stroke-width:1050780;stroke-linecap:round;stroke-linejoin:round;stroke-opacity:0.99574471;-inkscape-stroke:none"
     d="M 131937650,13724336 A 13198930,13198930 0 0 0 109933980,3891316"
     id="path594" />
  <path
     style="color:#000000;fill:none;fill-opacity:1;fill-rule:evenodd;stroke:#ffffff;stroke-width:8.75652;stroke-linecap:round;stroke-linejoin:round;stroke-opacity:0.99574471;-inkscape-stroke:none"
     d="M 118739150,4.3824443 C 118030410,-13.117556 117321820,54864.132 116619790,164566.11 c -1302330,203510.83 -2568560,593579.76 -3759660,1158184.19 -1191090,564604.3 -2294640,1297851.3 -3276630,2177156.8 a 525392.6,525392.6 0 0 0 -40930,741889.4 525392.6,525392.6 0 0 0 741890,40928.1 c 906810,-811976.7 1925860,-1489085 3025760,-2010467.4 1099900,-521373.2 2269180,-881573.6 3471800,-1069506.5 1202620,-187924.2 2426050,-201619.4 3632580,-40665.4 1206520,160954 2383560,494884.8 3494870,991503.3 1111300,496618.8 2145250,1150741.3 3070010,1942218.7 924760,791477.8 1730680,1712044.6 2392920,2733346.4 662240,1021301.8 1173900,2132673.6 1519210,3299885.3 345300,1167213 520660,2378076 520660,3595297 a 525392.6,525392.6 0 0 0 525380,525392 525392.6,525392.6 0 0 0 525400,-525392 c 0,-1318131 -189900,-2629406 -563830,-3893386.8 -373940,-1263980.6 -928020,-2467514.9 -1645160,-3573484.1 C 129536920,5151487.5 128664170,4154590 127662740,3297490.9 126661310,2440391.8 125541620,1732031.2 124338190,1194239.3 123134750,656447.37 121860100,294828.44 120553540,120529.44 119951300,40188.172 119345170,21.912444 118739150,4.3824443 Z"
     id="path596" />
  <path
     style="color:#000000;fill:none;fill-opacity:1;fill-rule:evenodd;stroke:#ffffff;stroke-width:1050780;stroke-linecap:round;stroke-linejoin:round;stroke-opacity:0.99574471;-inkscape-stroke:none"
     d="m 105603910,35615692 a 4378275,4378275 0 0 0 8756550,0"
     id="path588" />
  <path
     style="color:#000000;fill:none;fill-opacity:1;fill-rule:evenodd;stroke:#ffffff;stroke-width:8.75652;stroke-linecap:round;stroke-linejoin:round;stroke-opacity:0.99574471;-inkscape-stroke:none"
     d="m 105603910,35090300 a 525392.6,525392.6 0 0 0 -525390,525392 c 0,643951 126840,1281618 373260,1876555 246440,594928 607650,1135524 1062990,1590865 455340,455339 995930,816544 1590860,1062973 594940,246433 1232610,373276 1876550,373276 643950,0 1281620,-126843 1876560,-373276 594930,-246429 1135520,-607634 1590860,-1062973 455340,-455341 816550,-995937 1062980,-1590865 246430,-594937 373270,-1232604 373270,-1876555 a 525392.6,525392.6 0 0 0 -525390,-525392 525392.6,525392.6 0 0 0 -525400,525392 c 0,505973 -99660,1006980 -293280,1474437 -193620,467458 -477420,892188 -835200,1249963 -357780,357773 -782500,641573 -1249960,835197 -467460,193626 -968460,293283 -1474440,293283 -505970,0 -1006970,-99657 -1474430,-293283 -467460,-193624 -892190,-477424 -1249960,-835197 -357780,-357775 -641580,-782505 -835200,-1249963 -193630,-467457 -293290,-968464 -293290,-1474437 a 525392.6,525392.6 0 0 0 -525390,-525392 z"
     id="path590" />
  <path
     style="color:#000000;fill:none;fill-opacity:1;fill-rule:evenodd;stroke:#ffffff;stroke-width:1050780;stroke-linecap:round;stroke-linejoin:round;stroke-opacity:0.99574471;-inkscape-stroke:none"
     d="m 105603910,26859152 v 8756540"
     id="path582" />
  <path
     style="color:#000000;fill:none;fill-opacity:1;fill-rule:evenodd;stroke:#ffffff;stroke-width:8.75652;stroke-linecap:round;stroke-linejoin:round;stroke-opacity:0.99574471;-inkscape-stroke:none"
     d="m 105603910,26333757 a 525392.6,525392.6 0 0 0 -525390,525395 v 8756540 a 525392.6,525392.6 0 0 0 525390,525394 525392.6,525392.6 0 0 0 525390,-525394 v -8756540 a 525392.6,525392.6 0 0 0 -525390,-525395 z"
     id="path584" />
  <path
     style="color:#000000;fill:none;fill-opacity:1;fill-rule:evenodd;stroke:#ffffff;stroke-width:1050780;stroke-linecap:round;stroke-linejoin:round;stroke-opacity:0.99574471;-inkscape-stroke:none"
     d="M 114360460,22480879 V 13724336"
     id="path576" />
  <path
     style="color:#000000;fill:none;fill-opacity:1;fill-rule:evenodd;stroke:#ffffff;stroke-width:8.75652;stroke-linecap:round;stroke-linejoin:round;stroke-opacity:0.99574471;-inkscape-stroke:none"
     d="m 114360460,13198943 a 525392.6,525392.6 0 0 0 -525400,525393 v 8756543 a 525392.6,525392.6 0 0 0 525400,525393 525392.6,525392.6 0 0 0 525390,-525393 v -8756543 a 525392.6,525392.6 0 0 0 -525390,-525393 z"
     id="path578" />
  <path
     style="color:#000000;fill:none;fill-opacity:1;fill-rule:evenodd;stroke:#ffffff;stroke-width:1050780;stroke-linecap:round;stroke-linejoin:round;stroke-opacity:0.99574471;-inkscape-stroke:none"
     d="m 123117000,13724336 a 4378271.5,4378271.5 0 0 0 -8756540,0"
     id="path570" />
  <path
     style="color:#000000;fill:none;fill-opacity:1;fill-rule:evenodd;stroke:#ffffff;stroke-width:8.75652;stroke-linecap:round;stroke-linejoin:round;stroke-opacity:0.99574471;-inkscape-stroke:none"
     d="m 118738730,8820671.6 c -643950,0 -1281620,126838.7 -1876560,373274.2 -594920,246426.4 -1135520,607633.4 -1590860,1062974.2 -455340,455340 -816550,995934 -1062980,1590862 -246430,594937 -373270,1232606 -373270,1876554 a 525392.6,525392.6 0 0 0 525400,525392 525392.6,525392.6 0 0 0 525390,-525392 c 0,-505971 99660,-1006976 293280,-1474436 193630,-467459 477430,-892186 835200,-1249961 357770,-357775 782500,-641575 1249960,-835199 467460,-193624.8 968470,-293282.8 1474440,-293282.8 505970,0 1006970,99658 1474430,293282.8 467460,193624 892190,477424 1249970,835199 357770,357775 641570,782502 835190,1249961 193630,467460 293290,968465 293290,1474436 a 525392.6,525392.6 0 0 0 525390,525392 525392.6,525392.6 0 0 0 525390,-525392 c 0,-643948 -126840,-1281617 -373270,-1876554 -246430,-594928 -607640,-1135522 -1062980,-1590862 -455340,-455340.8 -995930,-816547.8 -1590860,-1062974.2 -594940,-246435.5 -1232610,-373274.2 -1876550,-373274.2 z"
     id="path572" />
  <path
     style="color:#000000;fill:none;fill-opacity:1;fill-rule:evenodd;stroke:#ffffff;stroke-width:1050780;stroke-linecap:round;stroke-linejoin:round;stroke-opacity:0.99574471;-inkscape-stroke:none"
     d="m 131873540,26859152 a 4378275,4378275 0 0 0 8756550,0"
     id="path564" />
  <path
     style="color:#000000;fill:none;fill-opacity:1;fill-rule:evenodd;stroke:#ffffff;stroke-width:8.75652;stroke-linecap:round;stroke-linejoin:round;stroke-opacity:0.99574471;-inkscape-stroke:none"
     d="m 131873540,26333757 a 525392.6,525392.6 0 0 0 -525390,525395 c 0,643945 126840,1281615 373260,1876552 246440,594928 607650,1135521 1062990,1590863 455340,455341 995930,816546 1590860,1062973 594930,246437 1232610,373275 1876550,373275 643950,0 1281620,-126838 1876560,-373275 594930,-246427 1135520,-607632 1590860,-1062973 455340,-455342 816550,-995935 1062980,-1590863 246430,-594937 373270,-1232607 373270,-1876552 a 525392.6,525392.6 0 0 0 -525390,-525395 525392.6,525392.6 0 0 0 -525400,525395 c 0,505970 -99660,1006974 -293280,1474434 -193630,467458 -477430,892188 -835200,1249961 -357780,357775 -782500,641575 -1249960,835199 -467460,193626 -968470,293283 -1474440,293283 -505970,0 -1006970,-99657 -1474440,-293283 -467450,-193624 -892180,-477424 -1249950,-835199 -357780,-357773 -641580,-782503 -835200,-1249961 -193630,-467460 -293290,-968464 -293290,-1474434 a 525392.6,525392.6 0 0 0 -525390,-525395 z"
     id="path566" />
  <path
     style="color:#000000;fill:none;fill-opacity:1;fill-rule:evenodd;stroke:#ffffff;stroke-width:1050780;stroke-linecap:round;stroke-linejoin:round;stroke-opacity:0.99574471;-inkscape-stroke:none"
     d="m 88090829,22480879 v 4378273"
     id="path558" />
  <path
     style="color:#000000;fill:none;fill-opacity:1;fill-rule:evenodd;stroke:#ffffff;stroke-width:8.75652;stroke-linecap:round;stroke-linejoin:round;stroke-opacity:0.99574471;-inkscape-stroke:none"
     d="m 88090829,21955486 a 525392.6,525392.6 0 0 0 -525394,525393 v 4378273 a 525392.6,525392.6 0 0 0 525394,525392 525392.6,525392.6 0 0 0 525392,-525392 v -4378273 a 525392.6,525392.6 0 0 0 -525392,-525393 z"
     id="path560" />
  <path
     style="color:#000000;fill:none;fill-opacity:1;fill-rule:evenodd;stroke:#ffffff;stroke-width:1050780;stroke-linecap:round;stroke-linejoin:round;stroke-opacity:0.99574471;-inkscape-stroke:none"
     d="m 96847372,22480879 v 4378273"
     id="path552" />
  <path
     style="color:#000000;fill:none;fill-opacity:1;fill-rule:evenodd;stroke:#ffffff;stroke-width:8.75652;stroke-linecap:round;stroke-linejoin:round;stroke-opacity:0.99574471;-inkscape-stroke:none"
     d="m 96847372,21955486 a 525392.6,525392.6 0 0 0 -525394,525393 v 4378273 a 525392.6,525392.6 0 0 0 525394,525392 525392.6,525392.6 0 0 0 525392,-525392 v -4378273 a 525392.6,525392.6 0 0 0 -525392,-525393 z"
     id="path554" />
  <path
     style="color:#000000;fill:none;fill-opacity:1;fill-rule:evenodd;stroke:#ffffff;stroke-width:1050780;stroke-linecap:round;stroke-linejoin:round;stroke-opacity:0.99574471;-inkscape-stroke:none"
     d="m 114360460,22480879 v 4378273"
     id="path546" />
  <path
     style="color:#000000;fill:none;fill-opacity:1;fill-rule:evenodd;stroke:#ffffff;stroke-width:8.75652;stroke-linecap:round;stroke-linejoin:round;stroke-opacity:0.99574471;-inkscape-stroke:none"
     d="m 114360460,21955486 a 525392.6,525392.6 0 0 0 -525400,525393 v 4378273 a 525392.6,525392.6 0 0 0 525400,525392 525392.6,525392.6 0 0 0 525390,-525392 v -4378273 a 525392.6,525392.6 0 0 0 -525390,-525393 z"
     id="path548" />
  <path
     style="color:#000000;fill:none;fill-opacity:1;fill-rule:evenodd;stroke:#ffffff;stroke-width:1050780;stroke-linecap:round;stroke-linejoin:round;stroke-opacity:0.99574471;-inkscape-stroke:none"
     d="m 123117000,13724336 v 8756543"
     id="path540" />
  <path
     style="color:#000000;fill:none;fill-opacity:1;fill-rule:evenodd;stroke:#ffffff;stroke-width:8.75652;stroke-linecap:round;stroke-linejoin:round;stroke-opacity:0.99574471;-inkscape-stroke:none"
     d="m 123117000,13198943 a 525392.6,525392.6 0 0 0 -525390,525393 v 8756543 a 525392.6,525392.6 0 0 0 525390,525393 525392.6,525392.6 0 0 0 525390,-525393 v -8756543 a 525392.6,525392.6 0 0 0 -525390,-525393 z"
     id="path542" />
  <path
     style="color:#000000;fill:none;fill-opacity:1;fill-rule:evenodd;stroke:#ffffff;stroke-width:1050780;stroke-linecap:round;stroke-linejoin:round;stroke-opacity:0.99574471;-inkscape-stroke:none"
     d="m 131937660,13724336 -64120,8756543"
     id="path534" />
  <path
     style="color:#000000;fill:none;fill-opacity:1;fill-rule:evenodd;stroke:#ffffff;stroke-width:8.75652;stroke-linecap:round;stroke-linejoin:round;stroke-opacity:0.99574471;-inkscape-stroke:none"
     d="m 131935480,13198952 a 525392.6,525392.6 0 0 0 -523190,521540 l -64120,8756543 a 525392.6,525392.6 0 0 0 521520,529219 525392.6,525392.6 0 0 0 529230,-521531 l 64120,-8756543 a 525392.6,525392.6 0 0 0 -521530,-529219 525392.6,525392.6 0 0 0 -6030,-9 z"
     id="path536" />
  <path
     style="color:#000000;fill:none;fill-opacity:1;fill-rule:evenodd;stroke:#ffffff;stroke-width:1050780;stroke-linecap:round;stroke-linejoin:round;stroke-opacity:0.99574471;-inkscape-stroke:none"
     d="m 140630090,13724336 v 8756543"
     id="path528" />
  <path
     style="color:#000000;fill:none;fill-opacity:1;fill-rule:evenodd;stroke:#ffffff;stroke-width:8.75652;stroke-linecap:round;stroke-linejoin:round;stroke-opacity:0.99574471;-inkscape-stroke:none"
     d="m 140630090,13198943 a 525392.6,525392.6 0 0 0 -525400,525393 v 8756543 a 525392.6,525392.6 0 0 0 525400,525393 525392.6,525392.6 0 0 0 525390,-525393 v -8756543 a 525392.6,525392.6 0 0 0 -525390,-525393 z"
     id="path530" />
  <path
     style="color:#000000;fill:none;fill-opacity:1;fill-rule:evenodd;stroke:#ffffff;stroke-width:1050780;stroke-linecap:round;stroke-linejoin:round;stroke-opacity:0.99574471;-inkscape-stroke:none"
     d="m 149386630,13724336 v 8756543"
     id="path522" />
  <path
     style="color:#000000;fill:none;fill-opacity:1;fill-rule:evenodd;stroke:#ffffff;stroke-width:8.75652;stroke-linecap:round;stroke-linejoin:round;stroke-opacity:0.99574471;-inkscape-stroke:none"
     d="m 149386630,13198943 a 525392.6,525392.6 0 0 0 -525400,525393 v 8756543 a 525392.6,525392.6 0 0 0 525400,525393 525392.6,525392.6 0 0 0 525390,-525393 v -8756543 a 525392.6,525392.6 0 0 0 -525390,-525393 z"
     id="path524" />
  <path
     style="color:#000000;fill:none;fill-opacity:1;fill-rule:evenodd;stroke:#ffffff;stroke-width:1050780;stroke-linecap:round;stroke-linejoin:round;stroke-opacity:0.99574471;-inkscape-stroke:none"
     d="M 161050780,2795513.3 A 13134815,13134815 0 0 0 140630090,13724336"
     id="path516" />
  <path
     style="color:#000000;fill:none;fill-opacity:1;fill-rule:evenodd;stroke:#ffffff;stroke-width:8.75652;stroke-linecap:round;stroke-linejoin:round;stroke-opacity:0.99574471;-inkscape-stroke:none"
     d="m 153761830,64137.322 c -1008120,227.68 -2013810,112048.728 -2998610,333869.468 -1200530,270410.78 -2359010,701810.71 -3443990,1282474.51 -1084990,580672.8 -2086550,1305294.4 -2977470,2154188.6 -890930,848894.4 -1663060,1814294.4 -2295450,2869983.2 -632370,1055688.9 -1119200,2191990.4 -1447270,3378054.9 -328060,1186066 -494350,2411027 -494350,3641628 a 525392.6,525392.6 0 0 0 525400,525392 525392.6,525392.6 0 0 0 525390,-525392 c 0,-1135943 153490,-2266675 456320,-3361506 302830,-1094830.1 752210,-2143724 1335940,-3118204.5 583740,-974480.7 1296480,-1865607.8 2118880,-2649213.5 822380,-783597 1746900,-1452474 2748420,-1988479.6 1001540,-535996.7 2070900,-934209.2 3179080,-1183823.3 1108170,-249605.3 2245000,-348326.5 3379610,-293484.3 1134610,54851 2256620,262766.3 3335560,618098 1078920,355340.6 2104890,854840.1 3050050,1484943.3 a 525392.6,525392.6 0 0 0 728590,-145717.6 525392.6,525392.6 0 0 0 -145710,-728588.3 C 160318300,1675744.1 159206820,1134616 158037980,749669.57 156869140,364723.16 155653630,139487.36 154424470,80065.472 c -220870,-10674.2 -441810,-15980.68 -662640,-15928.15 z"
     id="path518" />
  <path
     style="color:#000000;fill:none;fill-opacity:1;fill-rule:evenodd;stroke:#ffffff;stroke-width:1050780;stroke-linecap:round;stroke-linejoin:round;stroke-opacity:0.99574471;-inkscape-stroke:none"
     d="m 35551569,22480879 v 4378273"
     id="path510" />
  <path
     style="color:#000000;fill:none;fill-opacity:1;fill-rule:evenodd;stroke:#ffffff;stroke-width:8.75652;stroke-linecap:round;stroke-linejoin:round;stroke-opacity:0.99574471;-inkscape-stroke:none"
     d="m 35551569,21955486 a 525392.6,525392.6 0 0 0 -525392,525393 v 4378273 a 525392.6,525392.6 0 0 0 525392,525392 525392.6,525392.6 0 0 0 525392,-525392 v -4378273 a 525392.6,525392.6 0 0 0 -525392,-525393 z"
     id="path512" />
  <path
     style="color:#000000;fill:none;fill-opacity:1;fill-rule:evenodd;stroke:#ffffff;stroke-width:1050780;stroke-linecap:round;stroke-linejoin:round;stroke-opacity:0.99574471;-inkscape-stroke:none"
     d="m 61821201,22480879 v 4378273"
     id="path504" />
  <path
     style="color:#000000;fill:none;fill-opacity:1;fill-rule:evenodd;stroke:#ffffff;stroke-width:8.75652;stroke-linecap:round;stroke-linejoin:round;stroke-opacity:0.99574471;-inkscape-stroke:none"
     d="m 61821201,21955486 a 525392.6,525392.6 0 0 0 -525395,525393 v 4378273 a 525392.6,525392.6 0 0 0 525395,525392 525392.6,525392.6 0 0 0 525389,-525392 v -4378273 a 525392.6,525392.6 0 0 0 -525389,-525393 z"
     id="path506" />
  <path
     style="color:#000000;fill:none;fill-opacity:1;fill-rule:evenodd;stroke:#ffffff;stroke-width:1050780;stroke-linecap:round;stroke-linejoin:round;stroke-opacity:0.99574471;-inkscape-stroke:none"
     d="m 53064658,22480879 v 4378273"
     id="path498" />
  <path
     style="color:#000000;fill:none;fill-opacity:1;fill-rule:evenodd;stroke:#ffffff;stroke-width:8.75652;stroke-linecap:round;stroke-linejoin:round;stroke-opacity:0.99574471;-inkscape-stroke:none"
     d="m 53064658,21955486 a 525392.6,525392.6 0 0 0 -525395,525393 v 4378273 a 525392.6,525392.6 0 0 0 525395,525392 525392.6,525392.6 0 0 0 525389,-525392 v -4378273 a 525392.6,525392.6 0 0 0 -525389,-525393 z"
     id="path500" />
  <path
     style="color:#000000;fill:none;fill-opacity:1;fill-rule:evenodd;stroke:#ffffff;stroke-width:1050780;stroke-linecap:round;stroke-linejoin:round;stroke-opacity:0.99574471;-inkscape-stroke:none"
     d="m 44308115,22480879 v 4378273"
     id="path492" />
  <path
     style="color:#000000;fill:none;fill-opacity:1;fill-rule:evenodd;stroke:#ffffff;stroke-width:8.75652;stroke-linecap:round;stroke-linejoin:round;stroke-opacity:0.99574471;-inkscape-stroke:none"
     d="m 44308115,21955486 a 525392.6,525392.6 0 0 0 -525395,525393 v 4378273 a 525392.6,525392.6 0 0 0 525395,525392 525392.6,525392.6 0 0 0 525389,-525392 v -4378273 a 525392.6,525392.6 0 0 0 -525389,-525393 z"
     id="path494" />
  <path
     style="color:#000000;fill:none;fill-opacity:1;fill-rule:evenodd;stroke:#ffffff;stroke-width:1050780;stroke-linecap:round;stroke-linejoin:round;stroke-opacity:0.99574471;-inkscape-stroke:none"
     d="m 35551569,26859152 a 13134816,13134816 0 0 0 26269632,0"
     id="path486" />
  <path
     style="color:#000000;fill:none;fill-opacity:1;fill-rule:evenodd;stroke:#ffffff;stroke-width:8.75652;stroke-linecap:round;stroke-linejoin:round;stroke-opacity:0.99574471;-inkscape-stroke:none"
     d="m 35551569,26333757 a 525392.6,525392.6 0 0 0 -525392,525395 c 0,894778 87915,1787392 262479,2664974 174561,877582 434927,1735896 777344,2562559 342414,826670 765225,1617691 1262332,2361673 497120,743974 1066126,1437319 1698822,2070013 632707,632704 1326049,1201715 2070021,1698822 743984,497120 1535005,919926 2361675,1262342 826663,342417 1684980,602776 2562560,777336 877581,174561 1770196,262479 2664973,262479 894778,0 1787395,-87918 2664977,-262479 877582,-174560 1735894,-434919 2562559,-777336 826668,-342416 1617694,-765222 2361673,-1262342 743977,-497107 1437317,-1066118 2070021,-1698822 632696,-632694 1201704,-1326039 1698822,-2070013 497107,-743982 919918,-1535003 1262332,-2361673 342419,-826663 602786,-1684977 777347,-2562559 174561,-877582 262476,-1770196 262476,-2664974 a 525392.6,525392.6 0 0 0 -525389,-525395 525392.6,525392.6 0 0 0 -525395,525395 c 0,825942 -81156,1649897 -242285,2459975 -161137,810076 -401467,1602368 -717545,2365438 -316083,763080 -706367,1493256 -1165241,2180005 -458872,686749 -984106,1326756 -1568142,1910789 -584032,584027 -1224040,1109272 -1910791,1568141 -686747,458869 -1416922,849156 -2180003,1165233 -763070,316078 -1555362,556417 -2365437,717548 -810075,161138 -1634034,242282 -2459979,242282 -825942,0 -1649897,-81144 -2459973,-242282 -810080,-161131 -1602370,-401470 -2365442,-717548 -763081,-316077 -1493251,-706364 -2180003,-1165233 -686746,-458869 -1326756,-984114 -1910791,-1568141 -584036,-584033 -1109270,-1224040 -1568139,-1910789 -458877,-686749 -849156,-1416925 -1165241,-2180005 -316075,-763070 -556411,-1555362 -717546,-2365438 -161131,-810078 -242287,-1634033 -242287,-2459975 a 525392.6,525392.6 0 0 0 -525392,-525395 z"
     id="path488" />
  <path
     style="color:#000000;fill:none;fill-opacity:1;fill-rule:evenodd;stroke:#ffffff;stroke-width:1050780;stroke-linecap:round;stroke-linejoin:round;stroke-opacity:0.99574471;-inkscape-stroke:none"
     d="m 44308115,26859152 a 4378271.5,4378271.5 0 0 0 8756543,0"
     id="path480" />
  <path
     style="color:#000000;fill:none;fill-opacity:1;fill-rule:evenodd;stroke:#ffffff;stroke-width:8.75652;stroke-linecap:round;stroke-linejoin:round;stroke-opacity:0.99574471;-inkscape-stroke:none"
     d="m 44308115,26333757 a 525392.6,525392.6 0 0 0 -525395,525395 c 0,643945 126838,1281615 373265,1876552 246437,594928 607642,1135521 1062984,1590863 455338,455341 995934,816546 1590860,1062973 594937,246437 1232609,373275 1876554,373275 643951,0 1281618,-126838 1876555,-373275 594929,-246427 1135522,-607632 1590860,-1062973 455342,-455342 816552,-995935 1062984,-1590863 246427,-594937 373265,-1232607 373265,-1876552 a 525392.6,525392.6 0 0 0 -525389,-525395 525392.6,525392.6 0 0 0 -525395,525395 c 0,505970 -99659,1006974 -293283,1474434 -193624,467458 -477424,892188 -835196,1249961 -357778,357775 -782506,641575 -1249963,835199 -467458,193626 -968465,293283 -1474438,293283 -505967,0 -1006974,-99657 -1474437,-293283 -467458,-193624 -892185,-477424 -1249957,-835199 -357776,-357773 -641576,-782503 -835202,-1249961 -193624,-467460 -293283,-968464 -293283,-1474434 a 525392.6,525392.6 0 0 0 -525389,-525395 z"
     id="path482" />
  <path
     style="color:#000000;fill:none;fill-opacity:1;fill-rule:evenodd;stroke:#ffffff;stroke-width:1050780;stroke-linecap:round;stroke-linejoin:round;stroke-opacity:0.99574471;-inkscape-stroke:none"
     d="M 525396.98,22480879 V 13724336"
     id="path474" />
  <path
     style="color:#000000;fill:none;fill-opacity:1;fill-rule:evenodd;stroke:#ffffff;stroke-width:8.75652;stroke-linecap:round;stroke-linejoin:round;stroke-opacity:0.99574471;-inkscape-stroke:none"
     d="M 525396.98,13198943 A 525392.6,525392.6 0 0 0 4.378262,13724336 v 8756543 A 525392.6,525392.6 0 0 0 525396.98,23006272 525392.6,525392.6 0 0 0 1050789.6,22480879 v -8756543 a 525392.6,525392.6 0 0 0 -525392.62,-525393 z"
     id="path476" />
  <path
     style="color:#000000;fill:none;fill-opacity:1;fill-rule:evenodd;stroke:#ffffff;stroke-width:1050780;stroke-linecap:round;stroke-linejoin:round;stroke-opacity:0.99574471;-inkscape-stroke:none"
     d="M 9281940.2,22480879 V 13724336"
     id="path468" />
  <path
     style="color:#000000;fill:none;fill-opacity:1;fill-rule:evenodd;stroke:#ffffff;stroke-width:8.75652;stroke-linecap:round;stroke-linejoin:round;stroke-opacity:0.99574471;-inkscape-stroke:none"
     d="m 9281940.2,13198943 a 525392.6,525392.6 0 0 0 -525392.7,525393 v 8756543 a 525392.6,525392.6 0 0 0 525392.7,525393 525392.6,525392.6 0 0 0 525391.9,-525393 v -8756543 a 525392.6,525392.6 0 0 0 -525391.9,-525393 z"
     id="path470" />
  <path
     style="color:#000000;fill:none;fill-opacity:1;fill-rule:evenodd;stroke:#ffffff;stroke-width:1050780;stroke-linecap:round;stroke-linejoin:round;stroke-opacity:0.99574471;-inkscape-stroke:none"
     d="m 18038483,13724336 a 4378271.7,4378271.7 0 0 0 -8756542.8,0"
     id="path462" />
  <path
     style="color:#000000;fill:none;fill-opacity:1;fill-rule:evenodd;stroke:#ffffff;stroke-width:8.75652;stroke-linecap:round;stroke-linejoin:round;stroke-opacity:0.99574471;-inkscape-stroke:none"
     d="m 13660212,8820671.6 c -643948,0 -1281616,126838.7 -1876554,373274.2 -594928,246426.4 -1135522,607633.4 -1590862,1062974.2 -455339.9,455340 -816547.9,995934 -1062983.5,1590862 -246426.5,594937 -373265,1232606 -373265,1876554 a 525392.6,525392.6 0 0 0 525392.7,525392 525392.6,525392.6 0 0 0 525391.9,-525392 c 0,-505971 99659,-1006976 293283.9,-1474436 193624,-467459 477424,-892186 835199,-1249961 357775,-357775 782502,-641575 1249961,-835199 467459,-193624.8 968465,-293282.8 1474436,-293282.8 505970,0 1006976,99658 1474435,293282.8 467459,193624 892187,477424 1249961,835199 357775,357775 641575,782502 835200,1249961 193624,467460 293283,968465 293283,1474436 a 525392.6,525392.6 0 0 0 525392,525392 525392.6,525392.6 0 0 0 525393,-525392 c 0,-643948 -126839,-1281617 -373265,-1876554 -246436,-594928 -607643,-1135522 -1062983,-1590862 -455341,-455340.8 -995935,-816547.8 -1590863,-1062974.2 -594937,-246435.5 -1232606,-373274.2 -1876553,-373274.2 z"
     id="path464" />
  <path
     style="color:#000000;fill:none;fill-opacity:1;fill-rule:evenodd;stroke:#ffffff;stroke-width:1050780;stroke-linecap:round;stroke-linejoin:round;stroke-opacity:0.99574471;-inkscape-stroke:none"
     d="m 525396.98,35615692 a 4378271.7,4378271.7 0 0 0 8756543.22,0"
     id="path456" />
  <path
     style="color:#000000;fill:none;fill-opacity:1;fill-rule:evenodd;stroke:#ffffff;stroke-width:8.75652;stroke-linecap:round;stroke-linejoin:round;stroke-opacity:0.99574471;-inkscape-stroke:none"
     d="M 525396.98,35090300 A 525392.6,525392.6 0 0 0 4.378262,35615692 c 0,643951 126838.541738,1281618 373265.161738,1876555 246435.37,594928 607642.76,1135524 1062983.06,1590865 455340.3,455339 995934.3,816544 1590862.6,1062973 594937.2,246433 1232605.9,373276 1876553.5,373276 643947.3,0 1281616.3,-126843 1876553.3,-373276 594928.3,-246429 1135522.2,-607634 1590862.5,-1062973 455340.3,-455341 816547.7,-995937 1062983.1,-1590865 246426.5,-594937 373264.5,-1232604 373264.5,-1876555 a 525392.6,525392.6 0 0 0 -525391.9,-525392 525392.6,525392.6 0 0 0 -525392.7,525392 c 0,505973 -99658.3,1006980 -293283.1,1474437 -193624.4,467458 -477424.1,892188 -835199,1249963 -357774.7,357773 -782502,641573 -1249961.3,835197 -467459.5,193626 -968465.2,293283 -1474435.4,293283 -505970.7,0 -1006976.4,-99657 -1474435.4,-293283 -467459.6,-193624 -892186.9,-477424 -1249961.8,-835197 -357774.8,-357775 -641574.4,-782505 -835199.1,-1249963 -193624.7,-467457 -293282.8,-968464 -293282.8,-1474437 a 525392.6,525392.6 0 0 0 -525392.62,-525392 z"
     id="path458" />
  <path
     style="color:#000000;fill:none;fill-opacity:1;fill-rule:evenodd;stroke:#ffffff;stroke-width:1050780;stroke-linecap:round;stroke-linejoin:round;stroke-opacity:0.99574471;-inkscape-stroke:none"
     d="m 44308115,22480879 64120,-8756543"
     id="path450" />
  <path
     style="color:#000000;fill:none;fill-opacity:1;fill-rule:evenodd;stroke:#ffffff;stroke-width:8.75652;stroke-linecap:round;stroke-linejoin:round;stroke-opacity:0.99574471;-inkscape-stroke:none"
     d="m 44370055,13198952 a 525392.6,525392.6 0 0 0 -523193,521540 l -64123,8756543 a 525392.6,525392.6 0 0 0 521527,529219 525392.6,525392.6 0 0 0 529224,-521531 l 64120,-8756543 a 525392.6,525392.6 0 0 0 -521529,-529219 525392.6,525392.6 0 0 0 -6026,-9 z"
     id="path452" />
  <path
     style="color:#000000;fill:none;fill-opacity:1;fill-rule:evenodd;stroke:#ffffff;stroke-width:1050780;stroke-linecap:round;stroke-linejoin:round;stroke-opacity:0.99574471;-inkscape-stroke:none"
     d="M 26795026,22480879 V 13724336"
     id="path444" />
  <path
     style="color:#000000;fill:none;fill-opacity:1;fill-rule:evenodd;stroke:#ffffff;stroke-width:8.75652;stroke-linecap:round;stroke-linejoin:round;stroke-opacity:0.99574471;-inkscape-stroke:none"
     d="m 26795026,13198943 a 525392.6,525392.6 0 0 0 -525392,525393 v 8756543 a 525392.6,525392.6 0 0 0 525392,525393 525392.6,525392.6 0 0 0 525392,-525393 v -8756543 a 525392.6,525392.6 0 0 0 -525392,-525393 z"
     id="path446" />
  <path
     style="color:#000000;fill:none;fill-opacity:1;fill-rule:evenodd;stroke:#ffffff;stroke-width:1050780;stroke-linecap:round;stroke-linejoin:round;stroke-opacity:0.99574471;-inkscape-stroke:none"
     d="m 35551569,13724336 a 4378271.5,4378271.5 0 0 0 -8756543,0"
     id="path438" />
  <path
     style="color:#000000;fill:none;fill-opacity:1;fill-rule:evenodd;stroke:#ffffff;stroke-width:8.75652;stroke-linecap:round;stroke-linejoin:round;stroke-opacity:0.99574471;-inkscape-stroke:none"
     d="m 31173298,8820671.6 c -643948,0 -1281616,126838.7 -1876552,373274.2 -594929,246426.4 -1135524,607633.4 -1590863,1062974.2 -455342,455340 -816549,995934 -1062984,1590862 -246427,594937 -373265,1232606 -373265,1876554 a 525392.6,525392.6 0 0 0 525392,525392 525392.6,525392.6 0 0 0 525392,-525392 c 0,-505971 99659,-1006976 293283,-1474436 193626,-467459 477424,-892186 835199,-1249961 357775,-357775 782503,-641575 1249963,-835199 467458,-193624.8 968465,-293282.8 1474435,-293282.8 505970,0 1006977,99658 1474437,293282.8 467458,193624 892185,477424 1249960,835199 357775,357775 641576,782502 835199,1249961 193624,467460 293283,968465 293283,1474436 a 525392.6,525392.6 0 0 0 525392,525392 525392.6,525392.6 0 0 0 525392,-525392 c 0,-643948 -126838,-1281617 -373264,-1876554 -246435,-594928 -607643,-1135522 -1062982,-1590862 -455341,-455340.8 -995934,-816547.8 -1590863,-1062974.2 -594936,-246435.5 -1232606,-373274.2 -1876554,-373274.2 z"
     id="path440" />
  <path
     style="color:#000000;fill:none;fill-opacity:1;fill-rule:evenodd;stroke:#ffffff;stroke-width:1050780;stroke-linecap:round;stroke-linejoin:round;stroke-opacity:0.99574471;-inkscape-stroke:none"
     d="M 18038483,26859152 V 22480879"
     id="path432" />
  <path
     style="color:#000000;fill:none;fill-opacity:1;fill-rule:evenodd;stroke:#ffffff;stroke-width:8.75652;stroke-linecap:round;stroke-linejoin:round;stroke-opacity:0.99574471;-inkscape-stroke:none"
     d="m 18038483,21955486 a 525392.6,525392.6 0 0 0 -525392,525393 v 4378273 a 525392.6,525392.6 0 0 0 525392,525392 525392.6,525392.6 0 0 0 525393,-525392 v -4378273 a 525392.6,525392.6 0 0 0 -525393,-525393 z"
     id="path434" />
  <path
     style="color:#000000;fill:none;fill-opacity:1;fill-rule:evenodd;stroke:#ffffff;stroke-width:1050780;stroke-linecap:round;stroke-linejoin:round;stroke-opacity:0.99574471;-inkscape-stroke:none"
     d="M 18038483,22480879 V 13724336"
     id="path426" />
  <path
     style="color:#000000;fill:none;fill-opacity:1;fill-rule:evenodd;stroke:#ffffff;stroke-width:8.75652;stroke-linecap:round;stroke-linejoin:round;stroke-opacity:0.99574471;-inkscape-stroke:none"
     d="m 18038483,13198943 a 525392.6,525392.6 0 0 0 -525392,525393 v 8756543 a 525392.6,525392.6 0 0 0 525392,525393 525392.6,525392.6 0 0 0 525393,-525393 v -8756543 a 525392.6,525392.6 0 0 0 -525393,-525393 z"
     id="path428" />
  <path
     style="color:#000000;fill:none;fill-opacity:1;fill-rule:evenodd;stroke:#ffffff;stroke-width:1050780;stroke-linecap:round;stroke-linejoin:round;stroke-opacity:0.99574471;-inkscape-stroke:none"
     d="m 18038483,35615692 a 4378271.5,4378271.5 0 0 0 8756543,0"
     id="path420" />
  <path
     style="color:#000000;fill:none;fill-opacity:1;fill-rule:evenodd;stroke:#ffffff;stroke-width:8.75652;stroke-linecap:round;stroke-linejoin:round;stroke-opacity:0.99574471;-inkscape-stroke:none"
     d="m 18038483,35090300 a 525392.6,525392.6 0 0 0 -525392,525392 c 0,643951 126838,1281618 373265,1876555 246435,594928 607643,1135524 1062983,1590865 455340,455339 995934,816544 1590862,1062973 594938,246433 1232606,373276 1876554,373276 643947,0 1281616,-126843 1876553,-373276 594929,-246429 1135523,-607634 1590863,-1062973 455340,-455341 816548,-995937 1062983,-1590865 246426,-594937 373264,-1232604 373264,-1876555 a 525392.6,525392.6 0 0 0 -525392,-525392 525392.6,525392.6 0 0 0 -525392,525392 c 0,505973 -99659,1006980 -293283,1474437 -193625,467458 -477424,892188 -835199,1249963 -357775,357773 -782503,641573 -1249962,835197 -467459,193626 -968465,293283 -1474435,293283 -505971,0 -1006976,-99657 -1474435,-293283 -467460,-193624 -892187,-477424 -1249962,-835197 -357775,-357775 -641575,-782505 -835199,-1249963 -193625,-467457 -293283,-968464 -293283,-1474437 a 525392.6,525392.6 0 0 0 -525393,-525392 z"
     id="path422" />
  <path
     style="color:#000000;fill:none;fill-opacity:1;fill-rule:evenodd;stroke:#ffffff;stroke-width:1050780;stroke-linecap:round;stroke-linejoin:round;stroke-opacity:0.99574471;-inkscape-stroke:none"
     d="m 18038483,26859152 v 8756540"
     id="path414" />
  <path
     style="color:#000000;fill:none;fill-opacity:1;fill-rule:evenodd;stroke:#ffffff;stroke-width:8.75652;stroke-linecap:round;stroke-linejoin:round;stroke-opacity:0.99574471;-inkscape-stroke:none"
     d="m 18038483,26333757 a 525392.6,525392.6 0 0 0 -525392,525395 v 8756540 a 525392.6,525392.6 0 0 0 525392,525394 525392.6,525392.6 0 0 0 525393,-525394 v -8756540 a 525392.6,525392.6 0 0 0 -525393,-525395 z"
     id="path416" />
  <path
     style="color:#000000;fill:none;fill-opacity:1;fill-rule:evenodd;stroke:#ffffff;stroke-width:1050780;stroke-linecap:round;stroke-linejoin:round;stroke-opacity:0.99574471;-inkscape-stroke:none"
     d="M 26795026,35615692 V 26859152"
     id="path408" />
  <path
     style="color:#000000;fill:none;fill-opacity:1;fill-rule:evenodd;stroke:#ffffff;stroke-width:8.75652;stroke-linecap:round;stroke-linejoin:round;stroke-opacity:0.99574471;-inkscape-stroke:none"
     d="m 26795026,26333757 a 525392.6,525392.6 0 0 0 -525392,525395 v 8756540 a 525392.6,525392.6 0 0 0 525392,525394 525392.6,525392.6 0 0 0 525392,-525394 v -8756540 a 525392.6,525392.6 0 0 0 -525392,-525395 z"
     id="path410" />
  <path
     style="color:#000000;fill:none;fill-opacity:1;fill-rule:evenodd;stroke:#ffffff;stroke-width:1050780;stroke-linecap:round;stroke-linejoin:round;stroke-opacity:0.99574471;-inkscape-stroke:none"
     d="M 22368541,3891307 A 13134815,13134815 0 0 0 525396.98,13724336"
     id="path402" />
  <path
     style="color:#000000;fill:none;fill-opacity:1;fill-rule:evenodd;stroke:#ffffff;stroke-width:8.75652;stroke-linecap:round;stroke-linejoin:round;stroke-opacity:0.99574471;-inkscape-stroke:none"
     d="m 13654686,64128.572 c -617047,245.18 -1234165,42302.838 -1847087,126208.018 C 10510842,367840.51 9246327.3,730799.27 8052828,1268065.7 6859337.3,1805332.2 5749252.7,2511345.9 4756620.2,3364443.5 3763987,4217532.4 2899112.1,5208869.1 2188518.5,6308025.7 1477933.7,7407181.7 928994.8,8602765.1 558549.23,9858095.2 188112.42,11113424 4.378262,12415487 4.378262,13724336 A 525392.6,525392.6 0 0 0 525396.98,14249728 525392.6,525392.6 0 0 0 1050789.6,13724336 c 0,-1208167 173633.4,-2410072 515585.2,-3568843 C 1908317.9,8996731 2415032.7,7893117.4 3070959,6878505.4 3726894.3,5863902.6 4525237.1,4948826.1 5441512.7,4161358.9 6357788.6,3373882.9 7382479.6,2722177.2 8484166.5,2226242 9585853.4,1730297.5 10753100,1395263.3 11950111,1231410.8 c 1197002,-163852.4 2411351,-154824.4 3605787,26812.6 1194436,181628.2 2356570,533991.6 3450761,1046258.2 1094192,512266.4 2109084,1179138.4 3013547,1980143.1 a 525392.6,525392.6 0 0 0 741653,-44982.2 525392.6,525392.6 0 0 0 -44982,-741653.1 C 21737037,2630224.8 20637574,1907783.8 19452201,1352829.1 18266827,797865.57 17007847,416150.36 15713875,219382.08 15031504,115608.3 14343134,63848.332 13654686,64128.572 Z"
     id="path404" />
  <path
     style="color:#000000;fill:none;fill-opacity:1;fill-rule:evenodd;stroke:#ffffff;stroke-width:1050780;stroke-linecap:round;stroke-linejoin:round;stroke-opacity:0.99574471;-inkscape-stroke:none"
     d="M 44372227,13724336 A 13198930,13198930 0 0 0 22368550,3891316"
     id="path396" />
  <path
     style="color:#000000;fill:none;fill-opacity:1;fill-rule:evenodd;stroke:#ffffff;stroke-width:8.75652;stroke-linecap:round;stroke-linejoin:round;stroke-opacity:0.99574471;-inkscape-stroke:none"
     d="M 31173719,4.3824443 C 30464982,-13.117556 29756392,54864.132 29054363,164566.11 27752030,368076.94 26485798,758145.87 25294707,1322750.3 24103615,1887354.6 23000063,2620601.6 22018070,3499907.1 a 525392.6,525392.6 0 0 0 -40929,741889.4 525392.6,525392.6 0 0 0 741890,40928.1 c 906810,-811976.7 1925861,-1489085 3025762,-2010467.4 1099900,-521373.2 2269180,-881573.6 3471803,-1069506.5 1202614,-187924.2 2426043,-201619.4 3632574,-40665.4 1206520,160954 2383566,494884.8 3494868,991503.3 1111300,496618.8 2145254,1150741.3 3070018,1942218.7 924759,791477.8 1730676,1712044.6 2392918,2733346.4 662239,1021301.8 1173901,2132673.6 1519206,3299885.3 345309,1167213 520657,2378076 520657,3595297 a 525392.6,525392.6 0 0 0 525390,525392 525392.6,525392.6 0 0 0 525394,-525392 c 0,-1318131 -189895,-2629406 -563825,-3893386.8 C 43959855,8566968.6 43405776,7363434.3 42688633,6257465.1 41971492,5151487.5 41098743,4154590 40097308,3297490.9 39095886,2440391.8 37976188,1732031.2 36772758,1194239.3 35569320,656447.37 34294673,294828.44 32988119,120529.44 32385868,40188.172 31779742,21.912444 31173719,4.3824443 Z"
     id="path398" />
  <path
     style="color:#000000;fill:none;fill-opacity:1;fill-rule:evenodd;stroke:#ffffff;stroke-width:1050780;stroke-linecap:round;stroke-linejoin:round;stroke-opacity:0.99574471;-inkscape-stroke:none"
     d="m 68867422,10252839 a 4378271.5,4378271.5 0 0 0 -7046221,3471497"
     id="path390" />
  <path
     style="color:#000000;fill:none;fill-opacity:1;fill-rule:evenodd;stroke:#ffffff;stroke-width:8.75652;stroke-linecap:round;stroke-linejoin:round;stroke-opacity:0.99574471;-inkscape-stroke:none"
     d="m 66198499,8820671.6 c -292976,61.4 -585682,26374.8 -874587,78800.3 -448239,81339.4 -882955,224745.5 -1291606,426084.6 -408659,201330.5 -787267,458632.7 -1124903,764472.5 -337633,305839 -631002,657231 -871643,1044051 -240637,386820 -426208,805287 -551336,1243316 -125134,438037 -188618,891380 -188618,1346940 a 525392.6,525392.6 0 0 0 525395,525392 525392.6,525392.6 0 0 0 525389,-525392 c 0,-357942 49881,-714131 148200,-1058307 98316,-344176 244122,-672967 433193,-976898 189072,-303922 419580,-580024 684866,-820321 265280,-240306 562760,-442469 883841,-600664 321095,-158187 662652,-270866.8 1014840,-334771.8 352198,-63914 711566,-78432 1067765,-43152 356198,35289 705741,120042.8 1038545,251811.8 332800,131768 645619,309272 929425,527389 a 525392.6,525392.6 0 0 0 736744,-96427 525392.6,525392.6 0 0 0 -96430,-736739.8 c -361205,-277600.3 -759349,-503510.6 -1182913,-671215.8 -423564,-167705.5 -868439,-275568.3 -1321780,-320480.6 -161148,-15963.4 -322812,-23923 -484387,-23888.2 z"
     id="path392" />
  <path
     style="color:#000000;fill:none;fill-opacity:1;fill-rule:evenodd;stroke:#ffffff;stroke-width:1050780;stroke-linecap:round;stroke-linejoin:round;stroke-opacity:0.99574471;-inkscape-stroke:none"
     d="m 156193530,10081395 a 4378271.5,4378271.5 0 0 0 -6806900,3642941"
     id="path384" />
  <path
     style="color:#000000;fill:none;fill-opacity:1;fill-rule:evenodd;stroke:#ffffff;stroke-width:8.75652;stroke-linecap:round;stroke-linejoin:round;stroke-opacity:0.99574471;-inkscape-stroke:none"
     d="m 153763790,8820671.6 c -361880,87.8 -722900,40227.8 -1076420,119850.8 -430950,97075.1 -846820,251934.8 -1236300,460375.4 -389480,208449.4 -749020,468571.4 -1068840,773299.2 -319820,304736 -597000,651285 -824000,1030251 -227010,378965 -401770,786872 -519540,1212632 -117760,425769 -177460,865506 -177460,1307256 a 525392.6,525392.6 0 0 0 525400,525392 525392.6,525392.6 0 0 0 525390,-525392 c 0,-347092 46900,-692590 139430,-1027125 92530,-334535 229840,-655025 408210,-952782 178370,-297766 396140,-570051 647430,-809490 251280,-239430 533780,-443808 839800,-607590 306030,-163774 632770,-285455 971380,-361723.8 338610,-76270 685970,-106427 1032660,-89676 346690,16760 689520,80288 1019190,188869.8 329680,108572 643170,261198 931970,453729 a 525392.6,525392.6 0 0 0 728590,-145718 525392.6,525392.6 0 0 0 -145720,-728587.8 c -367560,-245043 -766550,-439289.6 -1186130,-577476.5 -419590,-138187 -855920,-219044.8 -1297160,-240376 -79280,-3826.7 -158600,-5735.5 -237880,-5718.1 z"
     id="path386" />
  <path
     style="color:#000000;fill:none;fill-opacity:1;fill-rule:evenodd;stroke:#ffffff;stroke-width:1050780;stroke-linecap:round;stroke-linejoin:round;stroke-opacity:0.99574471;-inkscape-stroke:none"
     d="M 68867422,10252839 A 4389120.9,4389120.9 0 0 0 73330537,2693867.3"
     id="path378" />
  <path
     style="color:#000000;fill:none;fill-opacity:1;fill-rule:evenodd;stroke:#ffffff;stroke-width:8.75652;stroke-linecap:round;stroke-linejoin:round;stroke-opacity:0.99574471;-inkscape-stroke:none"
     d="m 73328192,2168483.7 a 525392.6,525392.6 0 0 0 -449789,257774.9 525392.6,525392.6 0 0 0 184524,719744.1 c 436349,258265.2 817580,599875.9 1121995,1005382.7 304404,405506.5 526006,866950 652194,1358052.1 126183,491102 154476,1002212.5 83251,1504233.9 -71216,502030.3 -240553,985111.1 -498351,1421730.2 -257804,436627.2 -599011,818219.9 -1004194,1123061.6 -405181,304841 -866387,526941.8 -1357352,653649.8 -490959,126707 -1002046,155542 -1504146,84859 -502100,-70682 -985356,-239500 -1422254,-496836.8 a 525392.6,525392.6 0 0 0 -719353,186059 525392.6,525392.6 0 0 0 186060,719349.8 c 555707,327311 1170427,542047 1809059,631950 638640,89913 1288752,53232 1913224,-107933 624472,-161164 1211136,-443685 1726501,-831416 515360,-387739 949388,-873140.4 1277283,-1428489.2 327909,-555357.7 543300,-1169847.9 633887,-1808383.9 90594,-638544.7 54615,-1288692 -105886,-1913331 -160496,-624648.2 -442388,-1211607.9 -829573,-1727385.8 -387191,-515786.6 -872119,-950321.3 -1427128,-1278823.2 a 525392.6,525392.6 0 0 0 -269952,-73248.2 z"
     id="path380" />
  <path
     style="color:#000000;fill:none;fill-opacity:1;fill-rule:evenodd;stroke:#ffffff;stroke-width:1050780;stroke-linecap:round;stroke-linejoin:round;stroke-opacity:0.99574471;-inkscape-stroke:none"
     d="m 26795026,22480879 v 4378273"
     id="path372" />
  <path
     style="color:#000000;fill:none;fill-opacity:1;fill-rule:evenodd;stroke:#ffffff;stroke-width:8.75652;stroke-linecap:round;stroke-linejoin:round;stroke-opacity:0.99574471;-inkscape-stroke:none"
     d="m 26795026,21955486 a 525392.6,525392.6 0 0 0 -525392,525393 v 4378273 a 525392.6,525392.6 0 0 0 525392,525392 525392.6,525392.6 0 0 0 525392,-525392 v -4378273 a 525392.6,525392.6 0 0 0 -525392,-525393 z"
     id="path374" />
  <path
     style="color:#000000;fill:none;fill-opacity:1;fill-rule:evenodd;stroke:#ffffff;stroke-width:1050780;stroke-linecap:round;stroke-linejoin:round;stroke-opacity:0.99574471;-inkscape-stroke:none"
     d="m 156193530,10081386 a 4378263.3,4378263.3 0 0 0 4857250,-7285864"
     id="path366" />
  <path
     style="color:#000000;fill:none;fill-opacity:1;fill-rule:evenodd;stroke:#ffffff;stroke-width:8.75652;stroke-linecap:round;stroke-linejoin:round;stroke-opacity:0.99574471;-inkscape-stroke:none"
     d="m 161052590,2270129.4 a 525392.6,525392.6 0 0 0 -438910,233878.8 525392.6,525392.6 0 0 0 145580,728614.2 c 420890,280708.6 782370,641547.9 1063810,1061941.3 281460,420392.5 477350,892090.1 576510,1388183.2 99170,496093.4 99670,1006844.9 1470,1503131 -98210,496294.6 -293180,968368.3 -573810,1389304.1 -280630,420944.5 -641400,782493.5 -1061740,1064016.2 -420340,281532 -891990,477511.8 -1388070,576775.8 -496080,99264 -1006830,99860 -1503140,1751 -496300,-98108 -968420,-292992.8 -1389410,-573543.8 a 525392.6,525392.6 0 0 0 -728560,145849 525392.6,525392.6 0 0 0 145850,728561.8 c 535800,357056 1136700,605103 1768350,729971 631640,124860 1281720,124107 1913080,-2224 631360,-126339 1231670,-375778 1766640,-734078 534970,-358301 994160,-818473.8 1351310,-1354199.9 357160,-535733.8 605320,-1136581.4 730300,-1768208.3 124980,-631626.9 124350,-1281704.3 -1860,-1913085.8 -126220,-631382 -375550,-1231739.3 -733750,-1766781.4 -358190,-535033.8 -818270,-994305.7 -1353940,-1351563.7 a 525392.6,525392.6 0 0 0 -289710,-88292.5 z"
     id="path368" />
  <path
     style="color:#000000;fill:none;fill-opacity:1;fill-rule:evenodd;stroke:#ffffff;stroke-width:1050780;stroke-linecap:round;stroke-linejoin:round;stroke-opacity:0.99574471;-inkscape-stroke:none"
     d="m 53064658,13724336 v 8756543"
     id="path360" />
  <path
     style="color:#000000;fill:none;fill-opacity:1;fill-rule:evenodd;stroke:#ffffff;stroke-width:8.75652;stroke-linecap:round;stroke-linejoin:round;stroke-opacity:0.99574471;-inkscape-stroke:none"
     d="m 53064658,13198943 a 525392.6,525392.6 0 0 0 -525395,525393 v 8756543 a 525392.6,525392.6 0 0 0 525395,525393 525392.6,525392.6 0 0 0 525389,-525393 v -8756543 a 525392.6,525392.6 0 0 0 -525389,-525393 z"
     id="path362" />
  <path
     style="color:#000000;fill:none;fill-opacity:1;fill-rule:evenodd;stroke:#ffffff;stroke-width:1050780;stroke-linecap:round;stroke-linejoin:round;stroke-opacity:0.99574471;-inkscape-stroke:none"
     d="m 70577743,26859152 a 13134815,13134815 0 0 0 26269629,0"
     id="path354" />
  <path
     style="color:#000000;fill:none;fill-opacity:1;fill-rule:evenodd;stroke:#ffffff;stroke-width:8.75652;stroke-linecap:round;stroke-linejoin:round;stroke-opacity:0.99574471;-inkscape-stroke:none"
     d="m 70577743,26333757 a 525392.6,525392.6 0 0 0 -525394,525395 c 0,894778 87918,1787392 262476,2664974 174566,877582 434930,1735896 777346,2562559 342414,826670 765225,1617691 1262335,2361673 497118,743974 1066126,1437319 1698819,2070013 632707,632704 1326050,1201715 2070024,1698822 743982,497120 1535002,919926 2361673,1262342 826663,342417 1684980,602776 2562562,777336 877579,174561 1770193,262479 2664974,262479 894778,0 1787392,-87918 2664976,-262479 877580,-174560 1735894,-434919 2562557,-777336 826670,-342416 1617694,-765222 2361673,-1262342 743977,-497107 1437317,-1066118 2070024,-1698822 632693,-632694 1201701,-1326039 1698819,-2070013 497110,-743982 919921,-1535003 1262335,-2361673 342416,-826663 602785,-1684977 777346,-2562559 174561,-877582 262476,-1770196 262476,-2664974 a 525392.6,525392.6 0 0 0 -525392,-525395 525392.6,525392.6 0 0 0 -525394,525395 c 0,825942 -81156,1649897 -242282,2459975 -161140,810076 -401471,1602368 -717546,2365438 -316085,763080 -706366,1493256 -1165241,2180005 -458872,686749 -984109,1326756 -1568141,1910789 -584036,584027 -1224043,1109272 -1910792,1568141 -686749,458869 -1416925,849156 -2180002,1165233 -763073,316078 -1555365,556417 -2365440,717548 -810076,161138 -1634034,242282 -2459976,242282 -825945,0 -1649901,-81144 -2459976,-242282 -810078,-161131 -1602370,-401470 -2365443,-717548 -763077,-316077 -1493250,-706364 -2180002,-1165233 -686746,-458869 -1326756,-984114 -1910792,-1568141 -584032,-584033 -1109269,-1224040 -1568136,-1910789 -458880,-686749 -849158,-1416925 -1165241,-2180005 -316078,-763070 -556411,-1555362 -717545,-2365438 -161132,-810078 -242288,-1634033 -242288,-2459975 a 525392.6,525392.6 0 0 0 -525392,-525395 z"
     id="path356" />
  <path
     style="color:#000000;fill:none;fill-opacity:1;fill-rule:evenodd;stroke:#ffffff;stroke-width:1050780;stroke-linecap:round;stroke-linejoin:round;stroke-opacity:0.99574471;-inkscape-stroke:none"
     d="m 79334286,26859152 a 4378271.5,4378271.5 0 0 0 -8756543,0"
     id="path348" />
  <path
     style="color:#000000;fill:none;fill-opacity:1;fill-rule:evenodd;stroke:#ffffff;stroke-width:8.75652;stroke-linecap:round;stroke-linejoin:round;stroke-opacity:0.99574471;-inkscape-stroke:none"
     d="m 74956012,21955486 c -643945,0 -1281615,126839 -1876552,373274 -594926,246427 -1135521,607634 -1590863,1062975 -455338,455340 -816546,995934 -1062984,1590862 -246426,594937 -373264,1232607 -373264,1876555 a 525392.6,525392.6 0 0 0 525394,525392 525392.6,525392.6 0 0 0 525392,-525392 c 0,-505973 99659,-1006977 293280,-1474437 193630,-467459 477427,-892187 835202,-1249961 357776,-357775 782503,-641575 1249961,-835199 467460,-193625 968467,-293283 1474434,-293283 505973,0 1006980,99658 1474438,293283 467457,193624 892184,477424 1249962,835199 357776,357774 641576,782502 835197,1249961 193624,467460 293283,968464 293283,1474437 a 525392.6,525392.6 0 0 0 525394,525392 525392.6,525392.6 0 0 0 525392,-525392 c 0,-643948 -126837,-1281618 -373264,-1876555 -246435,-594928 -607646,-1135522 -1062984,-1590862 -455342,-455341 -995932,-816548 -1590863,-1062975 -594937,-246435 -1232604,-373274 -1876555,-373274 z"
     id="path350" />
</svg>
